G75*
%MOIN*%
%OFA0B0*%
%FSLAX25Y25*%
%IPPOS*%
%LPD*%
%AMOC8*
5,1,8,0,0,1.08239X$1,22.5*
%
%ADD10C,0.00800*%
%ADD11C,0.00500*%
%ADD12C,0.01000*%
%ADD13C,0.00400*%
D10*
X0058669Y0104876D02*
X0061472Y0107679D01*
X0062172Y0107679D01*
X0062873Y0106978D01*
X0062873Y0105577D01*
X0062172Y0104876D01*
X0058669Y0104876D02*
X0058669Y0107679D01*
X0059370Y0114084D02*
X0058669Y0114785D01*
X0058669Y0116186D01*
X0059370Y0116887D01*
X0060771Y0116887D01*
X0061472Y0116186D01*
X0061472Y0114785D01*
X0060771Y0114084D01*
X0059370Y0114084D01*
X0060771Y0118688D02*
X0060771Y0120089D01*
X0062172Y0119389D02*
X0062873Y0120089D01*
X0062172Y0119389D02*
X0058669Y0119389D01*
X0058669Y0122458D02*
X0062172Y0122458D01*
X0062873Y0123159D01*
X0060771Y0123159D02*
X0060771Y0121757D01*
X0060771Y0129431D02*
X0060771Y0132233D01*
X0061472Y0132233D02*
X0058669Y0132233D01*
X0058669Y0134035D02*
X0061472Y0134035D01*
X0062873Y0135436D01*
X0061472Y0136837D01*
X0058669Y0136837D01*
X0060771Y0136837D02*
X0060771Y0134035D01*
X0061472Y0132233D02*
X0062873Y0130832D01*
X0061472Y0129431D01*
X0058669Y0129431D01*
X0058669Y0143242D02*
X0061472Y0143242D01*
X0062873Y0144644D01*
X0061472Y0146045D01*
X0058669Y0146045D01*
X0058669Y0147846D02*
X0058669Y0149248D01*
X0058669Y0148547D02*
X0062873Y0148547D01*
X0062873Y0147846D01*
X0060771Y0146045D02*
X0060771Y0143242D01*
X0060070Y0150916D02*
X0061472Y0153017D01*
X0061472Y0155453D02*
X0061472Y0156854D01*
X0060771Y0157555D01*
X0058669Y0157555D01*
X0058669Y0155453D01*
X0059370Y0154752D01*
X0060070Y0155453D01*
X0060070Y0157555D01*
X0058669Y0159356D02*
X0058669Y0160757D01*
X0058669Y0160057D02*
X0062873Y0160057D01*
X0062873Y0159356D01*
X0061472Y0162425D02*
X0061472Y0163126D01*
X0058669Y0163126D01*
X0058669Y0162425D02*
X0058669Y0163827D01*
X0058669Y0165495D02*
X0061472Y0165495D01*
X0061472Y0167597D01*
X0060771Y0168297D01*
X0058669Y0168297D01*
X0059370Y0170099D02*
X0060771Y0170099D01*
X0061472Y0170799D01*
X0061472Y0172200D01*
X0060771Y0172901D01*
X0060070Y0172901D01*
X0060070Y0170099D01*
X0059370Y0170099D02*
X0058669Y0170799D01*
X0058669Y0172200D01*
X0058669Y0179307D02*
X0058669Y0181408D01*
X0059370Y0182109D01*
X0060070Y0182109D01*
X0060771Y0181408D01*
X0060771Y0179307D01*
X0060771Y0181408D02*
X0061472Y0182109D01*
X0062172Y0182109D01*
X0062873Y0181408D01*
X0062873Y0179307D01*
X0058669Y0179307D01*
X0059370Y0183910D02*
X0060070Y0184611D01*
X0060070Y0186713D01*
X0060771Y0186713D02*
X0058669Y0186713D01*
X0058669Y0184611D01*
X0059370Y0183910D01*
X0061472Y0184611D02*
X0061472Y0186012D01*
X0060771Y0186713D01*
X0061472Y0188514D02*
X0061472Y0189916D01*
X0062172Y0189215D02*
X0059370Y0189215D01*
X0058669Y0189916D01*
X0059370Y0192284D02*
X0058669Y0192985D01*
X0059370Y0192284D02*
X0062172Y0192284D01*
X0061472Y0191584D02*
X0061472Y0192985D01*
X0060771Y0194653D02*
X0059370Y0194653D01*
X0058669Y0195354D01*
X0058669Y0196755D01*
X0060070Y0197455D02*
X0060070Y0194653D01*
X0060771Y0194653D02*
X0061472Y0195354D01*
X0061472Y0196755D01*
X0060771Y0197455D01*
X0060070Y0197455D01*
X0060070Y0199257D02*
X0061472Y0200658D01*
X0061472Y0201359D01*
X0061472Y0203093D02*
X0059370Y0203093D01*
X0058669Y0203794D01*
X0058669Y0205896D01*
X0057969Y0205896D02*
X0057268Y0205195D01*
X0057268Y0204495D01*
X0057969Y0205896D02*
X0061472Y0205896D01*
X0061472Y0199257D02*
X0058669Y0199257D01*
X0062873Y0163126D02*
X0063573Y0163126D01*
X0058669Y0153017D02*
X0060070Y0150916D01*
X0058669Y0150916D02*
X0062873Y0150916D01*
X0147540Y0009251D02*
X0146839Y0008550D01*
X0146839Y0005748D01*
X0147540Y0005047D01*
X0148941Y0005047D01*
X0149641Y0005748D01*
X0149641Y0008550D01*
X0148941Y0009251D01*
X0147540Y0009251D01*
X0145037Y0007850D02*
X0145037Y0005047D01*
X0142235Y0005047D02*
X0142235Y0007149D01*
X0142936Y0007850D01*
X0145037Y0007850D01*
X0155980Y0007850D02*
X0156681Y0007850D01*
X0158082Y0006448D01*
X0158082Y0005047D02*
X0158082Y0007850D01*
X0159883Y0007149D02*
X0159883Y0006448D01*
X0162686Y0006448D01*
X0162686Y0005748D02*
X0162686Y0007149D01*
X0161985Y0007850D01*
X0160584Y0007850D01*
X0159883Y0007149D01*
X0160584Y0005047D02*
X0161985Y0005047D01*
X0162686Y0005748D01*
X0164487Y0005748D02*
X0165188Y0005047D01*
X0165889Y0005748D01*
X0166589Y0005047D01*
X0167290Y0005748D01*
X0167290Y0007850D01*
X0169091Y0007149D02*
X0169792Y0007850D01*
X0171193Y0007850D01*
X0171894Y0007149D01*
X0171894Y0005748D01*
X0171193Y0005047D01*
X0169792Y0005047D01*
X0169091Y0005748D01*
X0169091Y0007149D01*
X0164487Y0007850D02*
X0164487Y0005748D01*
X0173695Y0007149D02*
X0174396Y0006448D01*
X0176498Y0006448D01*
X0176498Y0005047D02*
X0176498Y0009251D01*
X0174396Y0009251D01*
X0173695Y0008550D01*
X0173695Y0007149D01*
X0223900Y0044700D02*
X0223900Y0046101D01*
X0223900Y0045401D02*
X0228104Y0045401D01*
X0228104Y0046101D02*
X0228104Y0044700D01*
X0227403Y0047769D02*
X0228104Y0048470D01*
X0228104Y0049871D01*
X0227403Y0050572D01*
X0226702Y0050572D01*
X0223900Y0047769D01*
X0223900Y0050572D01*
X0224601Y0052373D02*
X0223900Y0053074D01*
X0223900Y0054475D01*
X0224601Y0055176D01*
X0224601Y0052373D02*
X0227403Y0052373D01*
X0228104Y0053074D01*
X0228104Y0054475D01*
X0227403Y0055176D01*
X0226004Y0163200D02*
X0226004Y0164601D01*
X0226004Y0163901D02*
X0221800Y0163901D01*
X0221800Y0164601D02*
X0221800Y0163200D01*
X0221800Y0166269D02*
X0226004Y0169072D01*
X0225303Y0170873D02*
X0222501Y0170873D01*
X0221800Y0171574D01*
X0221800Y0172975D01*
X0222501Y0173676D01*
X0225303Y0173676D01*
X0226004Y0172975D01*
X0226004Y0171574D01*
X0225303Y0170873D01*
X0205272Y0261728D02*
X0201069Y0261728D01*
X0201069Y0263830D01*
X0201769Y0264531D01*
X0202470Y0264531D01*
X0203170Y0263830D01*
X0203170Y0261728D01*
X0205272Y0261728D02*
X0205272Y0263830D01*
X0204571Y0264531D01*
X0203871Y0264531D01*
X0203170Y0263830D01*
X0203871Y0266332D02*
X0205272Y0267733D01*
X0201069Y0267733D01*
X0201069Y0266332D02*
X0201069Y0269135D01*
D11*
X0065339Y0278624D02*
X0065339Y0042403D01*
X0199197Y0042403D01*
X0199197Y0278624D01*
X0065339Y0278624D01*
X0201031Y0120710D02*
X0208906Y0120710D01*
X0208906Y0057718D02*
X0201031Y0057718D01*
X0173472Y0034096D02*
X0173472Y0010474D01*
X0147488Y0010474D01*
X0147488Y0034096D01*
X0173472Y0034096D01*
X0156543Y0022285D02*
X0156545Y0022410D01*
X0156551Y0022535D01*
X0156561Y0022659D01*
X0156575Y0022783D01*
X0156592Y0022907D01*
X0156614Y0023030D01*
X0156640Y0023152D01*
X0156669Y0023274D01*
X0156702Y0023394D01*
X0156740Y0023513D01*
X0156780Y0023632D01*
X0156825Y0023748D01*
X0156873Y0023863D01*
X0156925Y0023977D01*
X0156981Y0024089D01*
X0157040Y0024199D01*
X0157102Y0024307D01*
X0157168Y0024414D01*
X0157237Y0024518D01*
X0157310Y0024619D01*
X0157385Y0024719D01*
X0157464Y0024816D01*
X0157546Y0024910D01*
X0157631Y0025002D01*
X0157718Y0025091D01*
X0157809Y0025177D01*
X0157902Y0025260D01*
X0157998Y0025341D01*
X0158096Y0025418D01*
X0158196Y0025492D01*
X0158299Y0025563D01*
X0158404Y0025630D01*
X0158512Y0025695D01*
X0158621Y0025755D01*
X0158732Y0025813D01*
X0158845Y0025866D01*
X0158959Y0025916D01*
X0159075Y0025963D01*
X0159192Y0026005D01*
X0159311Y0026044D01*
X0159431Y0026080D01*
X0159552Y0026111D01*
X0159674Y0026139D01*
X0159796Y0026162D01*
X0159920Y0026182D01*
X0160044Y0026198D01*
X0160168Y0026210D01*
X0160293Y0026218D01*
X0160418Y0026222D01*
X0160542Y0026222D01*
X0160667Y0026218D01*
X0160792Y0026210D01*
X0160916Y0026198D01*
X0161040Y0026182D01*
X0161164Y0026162D01*
X0161286Y0026139D01*
X0161408Y0026111D01*
X0161529Y0026080D01*
X0161649Y0026044D01*
X0161768Y0026005D01*
X0161885Y0025963D01*
X0162001Y0025916D01*
X0162115Y0025866D01*
X0162228Y0025813D01*
X0162339Y0025755D01*
X0162449Y0025695D01*
X0162556Y0025630D01*
X0162661Y0025563D01*
X0162764Y0025492D01*
X0162864Y0025418D01*
X0162962Y0025341D01*
X0163058Y0025260D01*
X0163151Y0025177D01*
X0163242Y0025091D01*
X0163329Y0025002D01*
X0163414Y0024910D01*
X0163496Y0024816D01*
X0163575Y0024719D01*
X0163650Y0024619D01*
X0163723Y0024518D01*
X0163792Y0024414D01*
X0163858Y0024307D01*
X0163920Y0024199D01*
X0163979Y0024089D01*
X0164035Y0023977D01*
X0164087Y0023863D01*
X0164135Y0023748D01*
X0164180Y0023632D01*
X0164220Y0023513D01*
X0164258Y0023394D01*
X0164291Y0023274D01*
X0164320Y0023152D01*
X0164346Y0023030D01*
X0164368Y0022907D01*
X0164385Y0022783D01*
X0164399Y0022659D01*
X0164409Y0022535D01*
X0164415Y0022410D01*
X0164417Y0022285D01*
X0164415Y0022160D01*
X0164409Y0022035D01*
X0164399Y0021911D01*
X0164385Y0021787D01*
X0164368Y0021663D01*
X0164346Y0021540D01*
X0164320Y0021418D01*
X0164291Y0021296D01*
X0164258Y0021176D01*
X0164220Y0021057D01*
X0164180Y0020938D01*
X0164135Y0020822D01*
X0164087Y0020707D01*
X0164035Y0020593D01*
X0163979Y0020481D01*
X0163920Y0020371D01*
X0163858Y0020263D01*
X0163792Y0020156D01*
X0163723Y0020052D01*
X0163650Y0019951D01*
X0163575Y0019851D01*
X0163496Y0019754D01*
X0163414Y0019660D01*
X0163329Y0019568D01*
X0163242Y0019479D01*
X0163151Y0019393D01*
X0163058Y0019310D01*
X0162962Y0019229D01*
X0162864Y0019152D01*
X0162764Y0019078D01*
X0162661Y0019007D01*
X0162556Y0018940D01*
X0162448Y0018875D01*
X0162339Y0018815D01*
X0162228Y0018757D01*
X0162115Y0018704D01*
X0162001Y0018654D01*
X0161885Y0018607D01*
X0161768Y0018565D01*
X0161649Y0018526D01*
X0161529Y0018490D01*
X0161408Y0018459D01*
X0161286Y0018431D01*
X0161164Y0018408D01*
X0161040Y0018388D01*
X0160916Y0018372D01*
X0160792Y0018360D01*
X0160667Y0018352D01*
X0160542Y0018348D01*
X0160418Y0018348D01*
X0160293Y0018352D01*
X0160168Y0018360D01*
X0160044Y0018372D01*
X0159920Y0018388D01*
X0159796Y0018408D01*
X0159674Y0018431D01*
X0159552Y0018459D01*
X0159431Y0018490D01*
X0159311Y0018526D01*
X0159192Y0018565D01*
X0159075Y0018607D01*
X0158959Y0018654D01*
X0158845Y0018704D01*
X0158732Y0018757D01*
X0158621Y0018815D01*
X0158511Y0018875D01*
X0158404Y0018940D01*
X0158299Y0019007D01*
X0158196Y0019078D01*
X0158096Y0019152D01*
X0157998Y0019229D01*
X0157902Y0019310D01*
X0157809Y0019393D01*
X0157718Y0019479D01*
X0157631Y0019568D01*
X0157546Y0019660D01*
X0157464Y0019754D01*
X0157385Y0019851D01*
X0157310Y0019951D01*
X0157237Y0020052D01*
X0157168Y0020156D01*
X0157102Y0020263D01*
X0157040Y0020371D01*
X0156981Y0020481D01*
X0156925Y0020593D01*
X0156873Y0020707D01*
X0156825Y0020822D01*
X0156780Y0020938D01*
X0156740Y0021057D01*
X0156702Y0021176D01*
X0156669Y0021296D01*
X0156640Y0021418D01*
X0156614Y0021540D01*
X0156592Y0021663D01*
X0156575Y0021787D01*
X0156561Y0021911D01*
X0156551Y0022035D01*
X0156545Y0022160D01*
X0156543Y0022285D01*
X0154561Y0022285D02*
X0154563Y0022439D01*
X0154569Y0022592D01*
X0154579Y0022746D01*
X0154593Y0022899D01*
X0154611Y0023051D01*
X0154633Y0023203D01*
X0154658Y0023355D01*
X0154688Y0023506D01*
X0154722Y0023656D01*
X0154759Y0023805D01*
X0154801Y0023953D01*
X0154846Y0024099D01*
X0154895Y0024245D01*
X0154948Y0024389D01*
X0155004Y0024532D01*
X0155064Y0024674D01*
X0155128Y0024814D01*
X0155196Y0024952D01*
X0155267Y0025088D01*
X0155341Y0025222D01*
X0155419Y0025355D01*
X0155501Y0025485D01*
X0155585Y0025613D01*
X0155673Y0025739D01*
X0155765Y0025863D01*
X0155859Y0025984D01*
X0155957Y0026103D01*
X0156057Y0026219D01*
X0156161Y0026332D01*
X0156268Y0026443D01*
X0156377Y0026551D01*
X0156489Y0026656D01*
X0156604Y0026758D01*
X0156721Y0026857D01*
X0156841Y0026953D01*
X0156964Y0027046D01*
X0157088Y0027136D01*
X0157216Y0027222D01*
X0157345Y0027306D01*
X0157476Y0027385D01*
X0157610Y0027461D01*
X0157745Y0027534D01*
X0157882Y0027603D01*
X0158021Y0027669D01*
X0158162Y0027731D01*
X0158304Y0027789D01*
X0158448Y0027844D01*
X0158593Y0027895D01*
X0158739Y0027942D01*
X0158886Y0027985D01*
X0159035Y0028025D01*
X0159184Y0028060D01*
X0159335Y0028092D01*
X0159486Y0028120D01*
X0159638Y0028144D01*
X0159790Y0028164D01*
X0159943Y0028180D01*
X0160096Y0028192D01*
X0160250Y0028200D01*
X0160403Y0028204D01*
X0160557Y0028204D01*
X0160710Y0028200D01*
X0160864Y0028192D01*
X0161017Y0028180D01*
X0161170Y0028164D01*
X0161322Y0028144D01*
X0161474Y0028120D01*
X0161625Y0028092D01*
X0161776Y0028060D01*
X0161925Y0028025D01*
X0162074Y0027985D01*
X0162221Y0027942D01*
X0162367Y0027895D01*
X0162512Y0027844D01*
X0162656Y0027789D01*
X0162798Y0027731D01*
X0162939Y0027669D01*
X0163078Y0027603D01*
X0163215Y0027534D01*
X0163350Y0027461D01*
X0163484Y0027385D01*
X0163615Y0027306D01*
X0163744Y0027222D01*
X0163872Y0027136D01*
X0163996Y0027046D01*
X0164119Y0026953D01*
X0164239Y0026857D01*
X0164356Y0026758D01*
X0164471Y0026656D01*
X0164583Y0026551D01*
X0164692Y0026443D01*
X0164799Y0026332D01*
X0164903Y0026219D01*
X0165003Y0026103D01*
X0165101Y0025984D01*
X0165195Y0025863D01*
X0165287Y0025739D01*
X0165375Y0025613D01*
X0165459Y0025485D01*
X0165541Y0025355D01*
X0165619Y0025222D01*
X0165693Y0025088D01*
X0165764Y0024952D01*
X0165832Y0024814D01*
X0165896Y0024674D01*
X0165956Y0024532D01*
X0166012Y0024389D01*
X0166065Y0024245D01*
X0166114Y0024099D01*
X0166159Y0023953D01*
X0166201Y0023805D01*
X0166238Y0023656D01*
X0166272Y0023506D01*
X0166302Y0023355D01*
X0166327Y0023203D01*
X0166349Y0023051D01*
X0166367Y0022899D01*
X0166381Y0022746D01*
X0166391Y0022592D01*
X0166397Y0022439D01*
X0166399Y0022285D01*
X0166397Y0022131D01*
X0166391Y0021978D01*
X0166381Y0021824D01*
X0166367Y0021671D01*
X0166349Y0021519D01*
X0166327Y0021367D01*
X0166302Y0021215D01*
X0166272Y0021064D01*
X0166238Y0020914D01*
X0166201Y0020765D01*
X0166159Y0020617D01*
X0166114Y0020471D01*
X0166065Y0020325D01*
X0166012Y0020181D01*
X0165956Y0020038D01*
X0165896Y0019896D01*
X0165832Y0019756D01*
X0165764Y0019618D01*
X0165693Y0019482D01*
X0165619Y0019348D01*
X0165541Y0019215D01*
X0165459Y0019085D01*
X0165375Y0018957D01*
X0165287Y0018831D01*
X0165195Y0018707D01*
X0165101Y0018586D01*
X0165003Y0018467D01*
X0164903Y0018351D01*
X0164799Y0018238D01*
X0164692Y0018127D01*
X0164583Y0018019D01*
X0164471Y0017914D01*
X0164356Y0017812D01*
X0164239Y0017713D01*
X0164119Y0017617D01*
X0163996Y0017524D01*
X0163872Y0017434D01*
X0163744Y0017348D01*
X0163615Y0017264D01*
X0163484Y0017185D01*
X0163350Y0017109D01*
X0163215Y0017036D01*
X0163078Y0016967D01*
X0162939Y0016901D01*
X0162798Y0016839D01*
X0162656Y0016781D01*
X0162512Y0016726D01*
X0162367Y0016675D01*
X0162221Y0016628D01*
X0162074Y0016585D01*
X0161925Y0016545D01*
X0161776Y0016510D01*
X0161625Y0016478D01*
X0161474Y0016450D01*
X0161322Y0016426D01*
X0161170Y0016406D01*
X0161017Y0016390D01*
X0160864Y0016378D01*
X0160710Y0016370D01*
X0160557Y0016366D01*
X0160403Y0016366D01*
X0160250Y0016370D01*
X0160096Y0016378D01*
X0159943Y0016390D01*
X0159790Y0016406D01*
X0159638Y0016426D01*
X0159486Y0016450D01*
X0159335Y0016478D01*
X0159184Y0016510D01*
X0159035Y0016545D01*
X0158886Y0016585D01*
X0158739Y0016628D01*
X0158593Y0016675D01*
X0158448Y0016726D01*
X0158304Y0016781D01*
X0158162Y0016839D01*
X0158021Y0016901D01*
X0157882Y0016967D01*
X0157745Y0017036D01*
X0157610Y0017109D01*
X0157476Y0017185D01*
X0157345Y0017264D01*
X0157216Y0017348D01*
X0157088Y0017434D01*
X0156964Y0017524D01*
X0156841Y0017617D01*
X0156721Y0017713D01*
X0156604Y0017812D01*
X0156489Y0017914D01*
X0156377Y0018019D01*
X0156268Y0018127D01*
X0156161Y0018238D01*
X0156057Y0018351D01*
X0155957Y0018467D01*
X0155859Y0018586D01*
X0155765Y0018707D01*
X0155673Y0018831D01*
X0155585Y0018957D01*
X0155501Y0019085D01*
X0155419Y0019215D01*
X0155341Y0019348D01*
X0155267Y0019482D01*
X0155196Y0019618D01*
X0155128Y0019756D01*
X0155064Y0019896D01*
X0155004Y0020038D01*
X0154948Y0020181D01*
X0154895Y0020325D01*
X0154846Y0020471D01*
X0154801Y0020617D01*
X0154759Y0020765D01*
X0154722Y0020914D01*
X0154688Y0021064D01*
X0154658Y0021215D01*
X0154633Y0021367D01*
X0154611Y0021519D01*
X0154593Y0021671D01*
X0154579Y0021824D01*
X0154569Y0021978D01*
X0154563Y0022131D01*
X0154561Y0022285D01*
D12*
X0199063Y0057718D02*
X0199063Y0097088D01*
X0211268Y0097088D01*
X0211268Y0057718D01*
X0199063Y0057718D01*
X0211268Y0057718D02*
X0238039Y0057718D01*
X0238039Y0066380D01*
X0234102Y0066380D01*
X0234102Y0088427D01*
X0238039Y0088427D01*
X0238039Y0097088D01*
X0211268Y0097088D01*
X0211268Y0120710D02*
X0199063Y0120710D01*
X0199063Y0160080D01*
X0211268Y0160080D01*
X0211268Y0120710D01*
X0238039Y0120710D01*
X0238039Y0129372D01*
X0234102Y0129372D01*
X0234102Y0151419D01*
X0238039Y0151419D01*
X0238039Y0160080D01*
X0211268Y0160080D01*
D13*
X0233606Y0163975D02*
X0233940Y0163641D01*
X0233606Y0163975D02*
X0233606Y0164642D01*
X0233940Y0164975D01*
X0234274Y0164975D01*
X0234607Y0164642D01*
X0234607Y0163975D01*
X0234941Y0163641D01*
X0235274Y0163641D01*
X0235608Y0163975D01*
X0235608Y0164642D01*
X0235274Y0164975D01*
X0235608Y0165851D02*
X0233606Y0165851D01*
X0234274Y0165851D02*
X0235608Y0167185D01*
X0234941Y0168061D02*
X0235608Y0168728D01*
X0233606Y0168728D01*
X0233606Y0168061D02*
X0233606Y0169395D01*
X0233606Y0167185D02*
X0234607Y0166184D01*
X0234234Y0055103D02*
X0234234Y0053769D01*
X0235568Y0055103D01*
X0235902Y0055103D01*
X0236236Y0054769D01*
X0236236Y0054102D01*
X0235902Y0053769D01*
X0236236Y0052893D02*
X0234901Y0051559D01*
X0235235Y0051892D02*
X0234234Y0052893D01*
X0234234Y0051559D02*
X0236236Y0051559D01*
X0235902Y0050683D02*
X0236236Y0050350D01*
X0236236Y0049682D01*
X0235902Y0049349D01*
X0235568Y0049349D01*
X0235235Y0049682D01*
X0235235Y0050350D01*
X0234901Y0050683D01*
X0234567Y0050683D01*
X0234234Y0050350D01*
X0234234Y0049682D01*
X0234567Y0049349D01*
X0163898Y0038090D02*
X0163898Y0037757D01*
X0163564Y0037423D01*
X0162897Y0037423D01*
X0162563Y0037089D01*
X0162563Y0036756D01*
X0162897Y0036422D01*
X0163564Y0036422D01*
X0163898Y0036756D01*
X0163898Y0038090D02*
X0163564Y0038424D01*
X0162897Y0038424D01*
X0162563Y0038090D01*
X0161688Y0038424D02*
X0161688Y0036422D01*
X0161021Y0037089D01*
X0160353Y0036422D01*
X0160353Y0038424D01*
X0159478Y0037757D02*
X0158811Y0038424D01*
X0158811Y0036422D01*
X0159478Y0036422D02*
X0158143Y0036422D01*
M02*
