%
M48
M72
T01C0.02362
T02C0.03150
T03C0.04331
T04C0.12992
T05C0.17717
%
T01
X56000Y102100
X52500Y111100
X43169Y148757
X74500Y147600
X84500Y166600
X84500Y174100
X56000Y209600
X52500Y204100
X48000Y183100
X38941Y182789
X75500Y268100
X118000Y220100
X118500Y246100
X146500Y266600
X155500Y214600
X162500Y214100
X196000Y152100
X195500Y144600
X180000Y122600
X173500Y126100
X171000Y132324
X171000Y142600
X135000Y94600
X131000Y73600
X152000Y72600
X160000Y82100
X172000Y73600
X183000Y76600
X194400Y89400
X196000Y80100
X194800Y53300
X183500Y38600
X173700Y53500
X226000Y65800
X230000Y73500
X230000Y107100
X226000Y111600
X225882Y128710
X230287Y136757
X225374Y178100
X230406Y183100
T02
X13000Y61970
X19693Y66970
X26386Y61970
X33079Y66970
X26386Y71970
X19693Y76970
X26386Y81970
X19693Y86970
X26386Y91970
X19693Y96970
X26386Y101970
X19693Y106970
X26386Y111970
X19693Y116970
X26386Y121970
X19693Y126970
X26386Y131970
X19693Y136970
X26386Y141970
X19693Y146970
X26386Y151970
X19693Y156970
X26386Y161970
X19693Y166970
X26386Y171970
X19693Y176970
X26386Y181970
X19693Y186970
X26386Y191970
X19693Y196970
X26386Y201970
X19693Y206970
X26386Y211970
X19693Y216970
X26386Y221970
X19693Y226970
X26386Y231970
X19693Y236970
X26386Y241970
X19693Y246970
X26386Y251970
X19693Y256970
X13000Y251970
X13000Y241970
X13000Y231970
X13000Y221970
X13000Y211970
X13000Y201970
X13000Y191970
X13000Y181970
X13000Y171970
X13000Y161970
X13000Y151970
X13000Y141970
X13000Y131970
X13000Y121970
X13000Y111970
X13000Y101970
X13000Y91970
X13000Y81970
X13000Y71970
X33079Y76970
X33079Y86970
X33079Y96970
X33079Y106970
X33079Y116970
X33079Y126970
X33079Y136970
X33079Y146970
X33079Y156970
X33079Y166970
X33079Y176970
X33079Y186970
X33079Y196970
X33079Y206970
X33079Y216970
X33079Y226970
X33079Y236970
X33079Y246970
X33079Y256970
X204969Y152206
X204969Y144332
X204969Y136458
X204969Y128584
X204969Y89214
X204969Y81340
X204969Y73466
X204969Y65592
T03
X157858Y54214
X106677Y54214
T04
X132268Y223506
T05
X211661Y197482
M30
