G75*
%MOIN*%
%OFA0B0*%
%FSLAX25Y25*%
%IPPOS*%
%LPD*%
%AMOC8*
5,1,8,0,0,1.08239X$1,22.5*
%
%ADD10C,0.05150*%
%ADD11C,0.06496*%
%ADD12R,0.05150X0.05150*%
%ADD13R,0.12598X0.04724*%
%ADD14C,0.03962*%
%ADD15C,0.01200*%
%ADD16C,0.01600*%
%ADD17C,0.02400*%
%ADD18C,0.03200*%
D10*
X0013000Y0061970D03*
X0019693Y0066970D03*
X0026386Y0061970D03*
X0033079Y0066970D03*
X0026386Y0071970D03*
X0019693Y0076970D03*
X0026386Y0081970D03*
X0019693Y0086970D03*
X0026386Y0091970D03*
X0019693Y0096970D03*
X0026386Y0101970D03*
X0019693Y0106970D03*
X0026386Y0111970D03*
X0019693Y0116970D03*
X0026386Y0121970D03*
X0019693Y0126970D03*
X0026386Y0131970D03*
X0019693Y0136970D03*
X0026386Y0141970D03*
X0019693Y0146970D03*
X0026386Y0151970D03*
X0019693Y0156970D03*
X0026386Y0161970D03*
X0019693Y0166970D03*
X0026386Y0171970D03*
X0019693Y0176970D03*
X0026386Y0181970D03*
X0019693Y0186970D03*
X0026386Y0191970D03*
X0019693Y0196970D03*
X0026386Y0201970D03*
X0019693Y0206970D03*
X0026386Y0211970D03*
X0019693Y0216970D03*
X0026386Y0221970D03*
X0019693Y0226970D03*
X0026386Y0231970D03*
X0019693Y0236970D03*
X0026386Y0241970D03*
X0019693Y0246970D03*
X0026386Y0251970D03*
X0019693Y0256970D03*
X0013000Y0251970D03*
X0013000Y0241970D03*
X0013000Y0231970D03*
X0013000Y0221970D03*
X0013000Y0211970D03*
X0013000Y0201970D03*
X0013000Y0191970D03*
X0013000Y0181970D03*
X0013000Y0171970D03*
X0013000Y0161970D03*
X0013000Y0151970D03*
X0013000Y0141970D03*
X0013000Y0131970D03*
X0013000Y0121970D03*
X0013000Y0111970D03*
X0013000Y0101970D03*
X0013000Y0091970D03*
X0013000Y0081970D03*
X0013000Y0071970D03*
X0033079Y0076970D03*
X0033079Y0086970D03*
X0033079Y0096970D03*
X0033079Y0106970D03*
X0033079Y0116970D03*
X0033079Y0126970D03*
X0033079Y0136970D03*
X0033079Y0146970D03*
X0033079Y0156970D03*
X0033079Y0166970D03*
X0033079Y0176970D03*
X0033079Y0186970D03*
X0033079Y0196970D03*
X0033079Y0206970D03*
X0033079Y0216970D03*
X0033079Y0226970D03*
X0033079Y0236970D03*
X0033079Y0246970D03*
X0033079Y0256970D03*
X0204969Y0152206D03*
X0204969Y0144332D03*
X0204969Y0136458D03*
X0204969Y0089214D03*
X0204969Y0081340D03*
X0204969Y0073466D03*
D11*
X0157858Y0054214D03*
X0106677Y0054214D03*
D12*
X0204969Y0065592D03*
X0204969Y0128584D03*
D13*
X0173866Y0030159D03*
X0173866Y0014411D03*
X0147094Y0014411D03*
X0147094Y0030159D03*
D14*
X0173700Y0053500D03*
X0183500Y0038600D03*
X0194800Y0053300D03*
X0183000Y0076600D03*
X0172000Y0073600D03*
X0160000Y0082100D03*
X0152000Y0072600D03*
X0131000Y0073600D03*
X0135000Y0094600D03*
X0171000Y0132324D03*
X0173500Y0126100D03*
X0180000Y0122600D03*
X0171000Y0142600D03*
X0195500Y0144600D03*
X0196000Y0152100D03*
X0225882Y0128710D03*
X0230287Y0136757D03*
X0226000Y0111600D03*
X0230000Y0107100D03*
X0230000Y0073500D03*
X0226000Y0065800D03*
X0196000Y0080100D03*
X0194400Y0089400D03*
X0225374Y0178100D03*
X0230406Y0183100D03*
X0162500Y0214100D03*
X0155500Y0214600D03*
X0118500Y0246100D03*
X0118000Y0220100D03*
X0146500Y0266600D03*
X0075500Y0268100D03*
X0056000Y0209600D03*
X0052500Y0204100D03*
X0048000Y0183100D03*
X0038941Y0182789D03*
X0043169Y0148757D03*
X0074500Y0147600D03*
X0084500Y0166600D03*
X0084500Y0174100D03*
X0052500Y0111100D03*
X0056000Y0102100D03*
D15*
X0074000Y0116100D01*
X0191000Y0115600D01*
X0203500Y0107100D01*
X0230000Y0107100D01*
X0226000Y0111600D02*
X0203500Y0111600D01*
X0192000Y0119100D01*
X0073000Y0119100D01*
X0061500Y0111100D01*
X0052500Y0111100D01*
X0052000Y0111600D01*
X0032000Y0111600D01*
X0027500Y0107100D01*
X0025500Y0107100D01*
X0019693Y0101293D01*
X0019693Y0096970D01*
X0020500Y0092100D02*
X0012870Y0092100D01*
X0013000Y0091970D01*
X0020500Y0092100D02*
X0025500Y0097100D01*
X0027500Y0097100D01*
X0032000Y0102100D01*
X0056000Y0102100D01*
X0072500Y0122100D02*
X0178000Y0122600D01*
X0180000Y0122600D01*
X0173500Y0126100D02*
X0045811Y0126336D01*
X0036598Y0152021D01*
X0032000Y0152100D01*
X0027000Y0157100D01*
X0019823Y0157100D01*
X0019693Y0156970D01*
X0014823Y0152100D01*
X0013000Y0152100D01*
X0013000Y0161970D01*
X0014693Y0161970D01*
X0019693Y0166970D01*
X0020630Y0171970D02*
X0025500Y0167100D01*
X0027500Y0167100D01*
X0032000Y0172100D01*
X0079000Y0171600D01*
X0084500Y0166600D01*
X0084500Y0174100D02*
X0041000Y0174100D01*
X0036500Y0179600D01*
X0034000Y0182100D01*
X0032000Y0182100D01*
X0027000Y0187100D01*
X0025500Y0187100D01*
X0020000Y0192600D01*
X0013630Y0192600D01*
X0013000Y0191970D01*
X0013000Y0171970D02*
X0020630Y0171970D01*
X0013000Y0152100D02*
X0013000Y0151970D01*
X0013000Y0131970D02*
X0020630Y0131970D01*
X0025500Y0127100D01*
X0027000Y0127100D01*
X0032000Y0122100D01*
X0072500Y0122100D01*
X0074500Y0147600D02*
X0073500Y0148600D01*
X0043169Y0148757D01*
X0042500Y0178600D02*
X0038941Y0182789D01*
X0042500Y0178600D02*
X0225374Y0178100D01*
X0230406Y0183100D02*
X0048000Y0183100D01*
X0052500Y0204100D02*
X0152500Y0204100D01*
X0162500Y0214100D01*
X0155500Y0214100D02*
X0151000Y0209600D01*
X0056000Y0209600D01*
X0118000Y0220100D02*
X0118500Y0220600D01*
X0118500Y0246100D01*
X0155500Y0214600D02*
X0155500Y0214100D01*
X0194000Y0082100D02*
X0196000Y0080100D01*
X0204969Y0073466D02*
X0225936Y0073464D01*
X0230000Y0073500D01*
X0226000Y0065800D02*
X0210265Y0065800D01*
X0204969Y0065592D01*
X0183000Y0076600D02*
X0173500Y0076600D01*
X0172000Y0073600D01*
X0153000Y0073600D01*
X0152000Y0072600D01*
X0151500Y0072600D01*
X0147000Y0077100D01*
X0126500Y0077100D01*
X0124500Y0075100D01*
X0124500Y0057600D01*
X0145000Y0037100D01*
X0145000Y0032254D01*
X0147094Y0030159D01*
X0173866Y0030159D02*
X0182307Y0038600D01*
X0183500Y0038600D01*
D16*
X0173866Y0030159D02*
X0147094Y0030159D01*
X0147094Y0014411D02*
X0173866Y0014411D01*
X0204969Y0128584D02*
X0225811Y0128820D01*
X0225882Y0128710D01*
X0228417Y0136498D02*
X0230287Y0136757D01*
X0228417Y0136498D02*
X0204969Y0136458D01*
D17*
X0204969Y0144332D02*
X0201661Y0144500D01*
X0195500Y0144600D01*
X0196000Y0152100D02*
X0201287Y0152000D01*
X0204969Y0152206D01*
X0204969Y0089214D02*
X0194363Y0089600D01*
X0194400Y0089400D01*
X0196000Y0080100D02*
X0200637Y0080200D01*
X0204969Y0081340D01*
X0194800Y0053300D02*
X0178500Y0053600D01*
X0173700Y0053500D01*
X0146500Y0266600D02*
X0086500Y0266600D01*
X0075500Y0268100D01*
D18*
X0007200Y0273991D02*
X0007200Y0041970D01*
X0101425Y0041970D01*
X0101425Y0006800D01*
X0234820Y0006800D01*
X0234820Y0210798D01*
X0198975Y0210798D01*
X0197358Y0211468D01*
X0196120Y0212706D01*
X0195450Y0214323D01*
X0195450Y0253475D01*
X0196120Y0255092D01*
X0197358Y0256330D01*
X0198975Y0257000D01*
X0234820Y0257000D01*
X0234820Y0273991D01*
X0007200Y0273991D01*
X0007200Y0271275D02*
X0072469Y0271275D01*
X0073014Y0271820D02*
X0071780Y0270586D01*
X0071112Y0268973D01*
X0071112Y0267227D01*
X0071780Y0265614D01*
X0073014Y0264380D01*
X0074627Y0263712D01*
X0076373Y0263712D01*
X0077515Y0264185D01*
X0085551Y0263089D01*
X0085782Y0262993D01*
X0086255Y0262993D01*
X0086724Y0262929D01*
X0086966Y0262993D01*
X0143901Y0262993D01*
X0144014Y0262880D01*
X0145627Y0262212D01*
X0147373Y0262212D01*
X0148986Y0262880D01*
X0150220Y0264114D01*
X0150888Y0265727D01*
X0150888Y0267473D01*
X0150220Y0269086D01*
X0148986Y0270320D01*
X0147373Y0270988D01*
X0145627Y0270988D01*
X0144014Y0270320D01*
X0143901Y0270207D01*
X0086745Y0270207D01*
X0078470Y0271335D01*
X0077986Y0271820D01*
X0076373Y0272488D01*
X0074627Y0272488D01*
X0073014Y0271820D01*
X0071112Y0268076D02*
X0007200Y0268076D01*
X0007200Y0264878D02*
X0072516Y0264878D01*
X0078914Y0271275D02*
X0234820Y0271275D01*
X0234820Y0268076D02*
X0150638Y0268076D01*
X0150536Y0264878D02*
X0234820Y0264878D01*
X0234820Y0261679D02*
X0034728Y0261679D01*
X0034070Y0261952D02*
X0032088Y0261952D01*
X0030257Y0261194D01*
X0028855Y0259792D01*
X0028097Y0257961D01*
X0028097Y0256654D01*
X0027377Y0256952D01*
X0025395Y0256952D01*
X0024675Y0256654D01*
X0024675Y0257961D01*
X0023916Y0259792D01*
X0022515Y0261194D01*
X0020684Y0261952D01*
X0018702Y0261952D01*
X0016871Y0261194D01*
X0015469Y0259792D01*
X0014711Y0257961D01*
X0014711Y0256654D01*
X0013991Y0256952D01*
X0012009Y0256952D01*
X0010178Y0256194D01*
X0008777Y0254792D01*
X0008018Y0252961D01*
X0008018Y0250979D01*
X0008777Y0249148D01*
X0010178Y0247747D01*
X0012009Y0246988D01*
X0013991Y0246988D01*
X0014711Y0247286D01*
X0014711Y0246654D01*
X0013991Y0246952D01*
X0012009Y0246952D01*
X0010178Y0246194D01*
X0008777Y0244792D01*
X0008018Y0242961D01*
X0008018Y0240979D01*
X0008777Y0239148D01*
X0010178Y0237747D01*
X0012009Y0236988D01*
X0013991Y0236988D01*
X0014711Y0237286D01*
X0014711Y0236654D01*
X0013991Y0236952D01*
X0012009Y0236952D01*
X0010178Y0236194D01*
X0008777Y0234792D01*
X0008018Y0232961D01*
X0008018Y0230979D01*
X0008777Y0229148D01*
X0010178Y0227747D01*
X0012009Y0226988D01*
X0013991Y0226988D01*
X0014711Y0227286D01*
X0014711Y0226654D01*
X0013991Y0226952D01*
X0012009Y0226952D01*
X0010178Y0226194D01*
X0008777Y0224792D01*
X0008018Y0222961D01*
X0008018Y0220979D01*
X0008777Y0219148D01*
X0010178Y0217747D01*
X0012009Y0216988D01*
X0013991Y0216988D01*
X0014711Y0217286D01*
X0014711Y0216654D01*
X0013991Y0216952D01*
X0012009Y0216952D01*
X0010178Y0216194D01*
X0008777Y0214792D01*
X0008018Y0212961D01*
X0008018Y0210979D01*
X0008777Y0209148D01*
X0010178Y0207747D01*
X0012009Y0206988D01*
X0013991Y0206988D01*
X0014711Y0207286D01*
X0014711Y0206654D01*
X0013991Y0206952D01*
X0012009Y0206952D01*
X0010178Y0206194D01*
X0008777Y0204792D01*
X0008018Y0202961D01*
X0008018Y0200979D01*
X0008777Y0199148D01*
X0010178Y0197747D01*
X0012009Y0196988D01*
X0013991Y0196988D01*
X0014711Y0197286D01*
X0014711Y0196654D01*
X0013991Y0196952D01*
X0012009Y0196952D01*
X0010178Y0196194D01*
X0008777Y0194792D01*
X0008018Y0192961D01*
X0008018Y0190979D01*
X0008777Y0189148D01*
X0010178Y0187747D01*
X0012009Y0186988D01*
X0013991Y0186988D01*
X0014711Y0187286D01*
X0014711Y0186654D01*
X0013991Y0186952D01*
X0012009Y0186952D01*
X0010178Y0186194D01*
X0008777Y0184792D01*
X0008018Y0182961D01*
X0008018Y0180979D01*
X0008777Y0179148D01*
X0010178Y0177747D01*
X0012009Y0176988D01*
X0013991Y0176988D01*
X0014711Y0177286D01*
X0014711Y0176654D01*
X0013991Y0176952D01*
X0012009Y0176952D01*
X0010178Y0176194D01*
X0008777Y0174792D01*
X0008018Y0172961D01*
X0008018Y0170979D01*
X0008777Y0169148D01*
X0010178Y0167747D01*
X0012009Y0166988D01*
X0013991Y0166988D01*
X0014711Y0167286D01*
X0014711Y0166654D01*
X0013991Y0166952D01*
X0012009Y0166952D01*
X0010178Y0166194D01*
X0008777Y0164792D01*
X0008018Y0162961D01*
X0008018Y0160979D01*
X0008777Y0159148D01*
X0009993Y0157932D01*
X0009993Y0156008D01*
X0008777Y0154792D01*
X0008018Y0152961D01*
X0008018Y0150979D01*
X0008777Y0149148D01*
X0010178Y0147747D01*
X0012009Y0146988D01*
X0013991Y0146988D01*
X0014711Y0147286D01*
X0014711Y0146654D01*
X0013991Y0146952D01*
X0012009Y0146952D01*
X0010178Y0146194D01*
X0008777Y0144792D01*
X0008018Y0142961D01*
X0008018Y0140979D01*
X0008777Y0139148D01*
X0010178Y0137747D01*
X0012009Y0136988D01*
X0013991Y0136988D01*
X0014711Y0137286D01*
X0014711Y0136654D01*
X0013991Y0136952D01*
X0012009Y0136952D01*
X0010178Y0136194D01*
X0008777Y0134792D01*
X0008018Y0132961D01*
X0008018Y0130979D01*
X0008777Y0129148D01*
X0010178Y0127747D01*
X0012009Y0126988D01*
X0013991Y0126988D01*
X0014711Y0127286D01*
X0014711Y0126654D01*
X0013991Y0126952D01*
X0012009Y0126952D01*
X0010178Y0126194D01*
X0008777Y0124792D01*
X0008018Y0122961D01*
X0008018Y0120979D01*
X0008777Y0119148D01*
X0010178Y0117747D01*
X0012009Y0116988D01*
X0013991Y0116988D01*
X0014711Y0117286D01*
X0014711Y0116654D01*
X0013991Y0116952D01*
X0012009Y0116952D01*
X0010178Y0116194D01*
X0008777Y0114792D01*
X0008018Y0112961D01*
X0008018Y0110979D01*
X0008777Y0109148D01*
X0010178Y0107747D01*
X0012009Y0106988D01*
X0013991Y0106988D01*
X0014711Y0107286D01*
X0014711Y0106654D01*
X0013991Y0106952D01*
X0012009Y0106952D01*
X0010178Y0106194D01*
X0008777Y0104792D01*
X0008018Y0102961D01*
X0008018Y0100979D01*
X0008777Y0099148D01*
X0010178Y0097747D01*
X0012009Y0096988D01*
X0013991Y0096988D01*
X0014711Y0097286D01*
X0014711Y0096654D01*
X0013991Y0096952D01*
X0012009Y0096952D01*
X0010178Y0096194D01*
X0008777Y0094792D01*
X0008018Y0092961D01*
X0008018Y0090979D01*
X0008777Y0089148D01*
X0010178Y0087747D01*
X0011897Y0087035D01*
X0011788Y0087017D01*
X0011014Y0086766D01*
X0010288Y0086396D01*
X0009629Y0085917D01*
X0009053Y0085341D01*
X0008574Y0084682D01*
X0008204Y0083957D01*
X0007953Y0083182D01*
X0007825Y0082377D01*
X0007825Y0081970D01*
X0007825Y0081563D01*
X0007953Y0080758D01*
X0008204Y0079984D01*
X0008574Y0079258D01*
X0009053Y0078599D01*
X0009629Y0078023D01*
X0010288Y0077544D01*
X0011014Y0077174D01*
X0011642Y0076970D01*
X0011014Y0076766D01*
X0010288Y0076396D01*
X0009629Y0075917D01*
X0009053Y0075341D01*
X0008574Y0074682D01*
X0008204Y0073957D01*
X0007953Y0073182D01*
X0007825Y0072377D01*
X0007825Y0071970D01*
X0007825Y0071563D01*
X0007953Y0070758D01*
X0008204Y0069984D01*
X0008574Y0069258D01*
X0009053Y0068599D01*
X0009629Y0068023D01*
X0010288Y0067544D01*
X0011014Y0067174D01*
X0011642Y0066970D01*
X0011014Y0066766D01*
X0010288Y0066396D01*
X0009629Y0065917D01*
X0009053Y0065341D01*
X0008574Y0064682D01*
X0008204Y0063957D01*
X0007953Y0063182D01*
X0007825Y0062377D01*
X0007825Y0061970D01*
X0007825Y0061563D01*
X0007953Y0060758D01*
X0008204Y0059984D01*
X0008574Y0059258D01*
X0009053Y0058599D01*
X0009629Y0058023D01*
X0010288Y0057544D01*
X0011014Y0057174D01*
X0011788Y0056923D01*
X0012593Y0056795D01*
X0013000Y0056795D01*
X0013407Y0056795D01*
X0014212Y0056923D01*
X0014986Y0057174D01*
X0015712Y0057544D01*
X0016371Y0058023D01*
X0016947Y0058599D01*
X0017426Y0059258D01*
X0017796Y0059984D01*
X0018047Y0060758D01*
X0018175Y0061563D01*
X0018175Y0061970D01*
X0013000Y0061970D01*
X0013000Y0056795D01*
X0013000Y0061970D01*
X0013000Y0061970D01*
X0013000Y0061970D01*
X0007825Y0061970D01*
X0013000Y0061970D01*
X0013000Y0061970D01*
X0018175Y0061970D01*
X0018175Y0062022D01*
X0018481Y0061923D01*
X0019286Y0061795D01*
X0019693Y0061795D01*
X0020100Y0061795D01*
X0020905Y0061923D01*
X0021404Y0062085D01*
X0021404Y0060979D01*
X0022162Y0059148D01*
X0023564Y0057747D01*
X0025395Y0056988D01*
X0027377Y0056988D01*
X0029208Y0057747D01*
X0030609Y0059148D01*
X0031368Y0060979D01*
X0031368Y0062286D01*
X0032088Y0061988D01*
X0034070Y0061988D01*
X0035901Y0062747D01*
X0037302Y0064148D01*
X0038061Y0065979D01*
X0038061Y0067961D01*
X0037302Y0069792D01*
X0035901Y0071194D01*
X0034070Y0071952D01*
X0032088Y0071952D01*
X0031368Y0071654D01*
X0031368Y0072286D01*
X0032088Y0071988D01*
X0034070Y0071988D01*
X0035901Y0072747D01*
X0037302Y0074148D01*
X0038061Y0075979D01*
X0038061Y0077961D01*
X0037302Y0079792D01*
X0035901Y0081194D01*
X0034070Y0081952D01*
X0032088Y0081952D01*
X0031368Y0081654D01*
X0031368Y0082286D01*
X0032088Y0081988D01*
X0034070Y0081988D01*
X0035901Y0082747D01*
X0037302Y0084148D01*
X0038061Y0085979D01*
X0038061Y0087961D01*
X0037302Y0089792D01*
X0035901Y0091194D01*
X0034070Y0091952D01*
X0032088Y0091952D01*
X0031368Y0091654D01*
X0031368Y0092286D01*
X0032088Y0091988D01*
X0034070Y0091988D01*
X0035901Y0092747D01*
X0037302Y0094148D01*
X0038061Y0095979D01*
X0038061Y0097961D01*
X0037592Y0099093D01*
X0052801Y0099093D01*
X0053514Y0098380D01*
X0055127Y0097712D01*
X0056873Y0097712D01*
X0058486Y0098380D01*
X0059720Y0099614D01*
X0060388Y0101227D01*
X0060388Y0101703D01*
X0075026Y0113089D01*
X0190069Y0112597D01*
X0201574Y0104773D01*
X0201797Y0104551D01*
X0202064Y0104440D01*
X0202304Y0104277D01*
X0202611Y0104213D01*
X0202902Y0104093D01*
X0203191Y0104093D01*
X0203475Y0104034D01*
X0203784Y0104093D01*
X0226801Y0104093D01*
X0227514Y0103380D01*
X0229127Y0102712D01*
X0230873Y0102712D01*
X0232486Y0103380D01*
X0233720Y0104614D01*
X0234388Y0106227D01*
X0234388Y0107973D01*
X0233720Y0109586D01*
X0232486Y0110820D01*
X0230873Y0111488D01*
X0230388Y0111488D01*
X0230388Y0112473D01*
X0229720Y0114086D01*
X0228486Y0115320D01*
X0226873Y0115988D01*
X0225127Y0115988D01*
X0223514Y0115320D01*
X0222801Y0114607D01*
X0204394Y0114607D01*
X0193905Y0121448D01*
X0193703Y0121649D01*
X0193409Y0121771D01*
X0193142Y0121946D01*
X0192861Y0121998D01*
X0192598Y0122107D01*
X0192279Y0122107D01*
X0191966Y0122166D01*
X0191687Y0122107D01*
X0184388Y0122107D01*
X0184388Y0123473D01*
X0183720Y0125086D01*
X0182486Y0126320D01*
X0180873Y0126988D01*
X0179127Y0126988D01*
X0177888Y0126475D01*
X0177888Y0126973D01*
X0177220Y0128586D01*
X0175986Y0129820D01*
X0174373Y0130488D01*
X0172627Y0130488D01*
X0171014Y0129820D01*
X0170307Y0129113D01*
X0047929Y0129339D01*
X0042538Y0144369D01*
X0044042Y0144369D01*
X0045655Y0145037D01*
X0046351Y0145734D01*
X0070575Y0145608D01*
X0070780Y0145114D01*
X0072014Y0143880D01*
X0073627Y0143212D01*
X0075373Y0143212D01*
X0076275Y0143585D01*
X0191333Y0143100D01*
X0191399Y0143034D01*
X0191780Y0142114D01*
X0193014Y0140880D01*
X0194627Y0140212D01*
X0196373Y0140212D01*
X0197986Y0140880D01*
X0198057Y0140951D01*
X0201358Y0140897D01*
X0201860Y0140395D01*
X0200745Y0139280D01*
X0199987Y0137449D01*
X0199987Y0135467D01*
X0200745Y0133636D01*
X0201137Y0133244D01*
X0201030Y0133200D01*
X0200353Y0132523D01*
X0199987Y0131638D01*
X0199987Y0125531D01*
X0200353Y0124646D01*
X0201030Y0123969D01*
X0201915Y0123602D01*
X0208022Y0123602D01*
X0208907Y0123969D01*
X0209584Y0124646D01*
X0209910Y0125433D01*
X0222807Y0125579D01*
X0223396Y0124990D01*
X0225009Y0124322D01*
X0226755Y0124322D01*
X0228368Y0124990D01*
X0229602Y0126225D01*
X0230270Y0127837D01*
X0230270Y0129583D01*
X0229602Y0131196D01*
X0228368Y0132430D01*
X0226755Y0133098D01*
X0225009Y0133098D01*
X0223396Y0132430D01*
X0222961Y0131995D01*
X0209864Y0131847D01*
X0209584Y0132523D01*
X0208907Y0133200D01*
X0208800Y0133244D01*
X0208813Y0133258D01*
X0227550Y0133289D01*
X0227802Y0133037D01*
X0229415Y0132369D01*
X0231160Y0132369D01*
X0232773Y0133037D01*
X0234008Y0134272D01*
X0234676Y0135885D01*
X0234676Y0137630D01*
X0234008Y0139243D01*
X0232773Y0140478D01*
X0231160Y0141146D01*
X0229415Y0141146D01*
X0227802Y0140478D01*
X0227026Y0139702D01*
X0208800Y0139672D01*
X0208077Y0140395D01*
X0209192Y0141510D01*
X0209950Y0143341D01*
X0209950Y0145323D01*
X0209192Y0147154D01*
X0208193Y0148153D01*
X0208340Y0148259D01*
X0208916Y0148835D01*
X0209394Y0149494D01*
X0209764Y0150220D01*
X0210016Y0150995D01*
X0210143Y0151799D01*
X0210143Y0152206D01*
X0204969Y0152206D01*
X0204969Y0152206D01*
X0210143Y0152206D01*
X0210143Y0152614D01*
X0210016Y0153418D01*
X0209764Y0154193D01*
X0209394Y0154918D01*
X0208916Y0155577D01*
X0208340Y0156153D01*
X0207681Y0156632D01*
X0206955Y0157002D01*
X0206180Y0157254D01*
X0205376Y0157381D01*
X0204969Y0157381D01*
X0204969Y0152206D01*
X0204968Y0152206D01*
X0199794Y0152206D01*
X0199794Y0151799D01*
X0199921Y0150995D01*
X0200173Y0150220D01*
X0200543Y0149494D01*
X0201021Y0148835D01*
X0201597Y0148259D01*
X0201744Y0148153D01*
X0201700Y0148110D01*
X0201127Y0148139D01*
X0201066Y0148117D01*
X0198141Y0148165D01*
X0197986Y0148320D01*
X0197066Y0148701D01*
X0195840Y0149927D01*
X0195284Y0150487D01*
X0195276Y0150491D01*
X0195270Y0150497D01*
X0194541Y0150799D01*
X0193814Y0151104D01*
X0193805Y0151104D01*
X0193797Y0151107D01*
X0193009Y0151107D01*
X0076311Y0151599D01*
X0075373Y0151988D01*
X0073627Y0151988D01*
X0072717Y0151611D01*
X0046385Y0151748D01*
X0045655Y0152478D01*
X0044042Y0153146D01*
X0042296Y0153146D01*
X0040684Y0152478D01*
X0039908Y0151702D01*
X0039614Y0152519D01*
X0039615Y0152568D01*
X0039413Y0153081D01*
X0039227Y0153600D01*
X0039194Y0153636D01*
X0039176Y0153681D01*
X0038793Y0154077D01*
X0038423Y0154485D01*
X0038379Y0154506D01*
X0038345Y0154541D01*
X0037840Y0154761D01*
X0037602Y0154873D01*
X0038061Y0155979D01*
X0038061Y0157961D01*
X0037302Y0159792D01*
X0035901Y0161194D01*
X0034070Y0161952D01*
X0032088Y0161952D01*
X0031368Y0161654D01*
X0031368Y0162286D01*
X0032088Y0161988D01*
X0034070Y0161988D01*
X0035901Y0162747D01*
X0037302Y0164148D01*
X0038061Y0165979D01*
X0038061Y0167961D01*
X0037617Y0169033D01*
X0077824Y0168605D01*
X0080112Y0166525D01*
X0080112Y0165727D01*
X0080780Y0164114D01*
X0082014Y0162880D01*
X0083627Y0162212D01*
X0085373Y0162212D01*
X0086986Y0162880D01*
X0088220Y0164114D01*
X0088888Y0165727D01*
X0088888Y0167473D01*
X0088220Y0169086D01*
X0086986Y0170320D01*
X0086914Y0170350D01*
X0086986Y0170380D01*
X0088220Y0171614D01*
X0088888Y0173227D01*
X0088888Y0174973D01*
X0088684Y0175467D01*
X0222167Y0175102D01*
X0222888Y0174380D01*
X0224501Y0173712D01*
X0226247Y0173712D01*
X0227860Y0174380D01*
X0229094Y0175614D01*
X0229762Y0177227D01*
X0229762Y0178712D01*
X0231278Y0178712D01*
X0232891Y0179380D01*
X0234126Y0180614D01*
X0234794Y0182227D01*
X0234794Y0183973D01*
X0234126Y0185586D01*
X0232891Y0186820D01*
X0231278Y0187488D01*
X0229533Y0187488D01*
X0227920Y0186820D01*
X0227207Y0186107D01*
X0216876Y0186107D01*
X0219311Y0187513D01*
X0221630Y0189832D01*
X0223271Y0192673D01*
X0224120Y0195842D01*
X0224120Y0199122D01*
X0223271Y0202291D01*
X0221630Y0205131D01*
X0219311Y0207451D01*
X0216470Y0209091D01*
X0213302Y0209940D01*
X0210021Y0209940D01*
X0206853Y0209091D01*
X0204012Y0207451D01*
X0201692Y0205131D01*
X0200052Y0202291D01*
X0199203Y0199122D01*
X0199203Y0195842D01*
X0200052Y0192673D01*
X0201692Y0189832D01*
X0204012Y0187513D01*
X0206447Y0186107D01*
X0051199Y0186107D01*
X0050486Y0186820D01*
X0048873Y0187488D01*
X0047127Y0187488D01*
X0045514Y0186820D01*
X0044280Y0185586D01*
X0043612Y0183973D01*
X0043612Y0182227D01*
X0043847Y0181658D01*
X0043329Y0182268D01*
X0043329Y0183662D01*
X0042661Y0185275D01*
X0041427Y0186509D01*
X0039814Y0187177D01*
X0038068Y0187177D01*
X0038061Y0187174D01*
X0038061Y0187961D01*
X0037302Y0189792D01*
X0035901Y0191194D01*
X0034070Y0191952D01*
X0032088Y0191952D01*
X0031368Y0191654D01*
X0031368Y0192286D01*
X0032088Y0191988D01*
X0034070Y0191988D01*
X0035901Y0192747D01*
X0037302Y0194148D01*
X0038061Y0195979D01*
X0038061Y0197961D01*
X0037302Y0199792D01*
X0035901Y0201194D01*
X0034070Y0201952D01*
X0032088Y0201952D01*
X0031368Y0201654D01*
X0031368Y0202286D01*
X0032088Y0201988D01*
X0034070Y0201988D01*
X0035901Y0202747D01*
X0037302Y0204148D01*
X0038061Y0205979D01*
X0038061Y0207961D01*
X0037302Y0209792D01*
X0035901Y0211194D01*
X0034070Y0211952D01*
X0032088Y0211952D01*
X0031368Y0211654D01*
X0031368Y0212286D01*
X0032088Y0211988D01*
X0034070Y0211988D01*
X0035901Y0212747D01*
X0037302Y0214148D01*
X0038061Y0215979D01*
X0038061Y0217961D01*
X0037302Y0219792D01*
X0035901Y0221194D01*
X0034070Y0221952D01*
X0032088Y0221952D01*
X0031368Y0221654D01*
X0031368Y0222286D01*
X0032088Y0221988D01*
X0034070Y0221988D01*
X0035901Y0222747D01*
X0037302Y0224148D01*
X0038061Y0225979D01*
X0038061Y0227961D01*
X0037302Y0229792D01*
X0035901Y0231194D01*
X0034070Y0231952D01*
X0032088Y0231952D01*
X0031368Y0231654D01*
X0031368Y0232286D01*
X0032088Y0231988D01*
X0034070Y0231988D01*
X0035901Y0232747D01*
X0037302Y0234148D01*
X0038061Y0235979D01*
X0038061Y0237961D01*
X0037302Y0239792D01*
X0035901Y0241194D01*
X0034070Y0241952D01*
X0032088Y0241952D01*
X0031368Y0241654D01*
X0031368Y0242286D01*
X0032088Y0241988D01*
X0034070Y0241988D01*
X0035901Y0242747D01*
X0037302Y0244148D01*
X0038061Y0245979D01*
X0038061Y0247961D01*
X0037302Y0249792D01*
X0035901Y0251194D01*
X0034070Y0251952D01*
X0032088Y0251952D01*
X0031368Y0251654D01*
X0031368Y0252286D01*
X0032088Y0251988D01*
X0034070Y0251988D01*
X0035901Y0252747D01*
X0037302Y0254148D01*
X0038061Y0255979D01*
X0038061Y0257961D01*
X0037302Y0259792D01*
X0035901Y0261194D01*
X0034070Y0261952D01*
X0037845Y0258481D02*
X0234820Y0258481D01*
X0196310Y0255282D02*
X0037772Y0255282D01*
X0034301Y0252084D02*
X0195450Y0252084D01*
X0195450Y0248885D02*
X0121920Y0248885D01*
X0122220Y0248586D02*
X0120986Y0249820D01*
X0119373Y0250488D01*
X0117627Y0250488D01*
X0116014Y0249820D01*
X0114780Y0248586D01*
X0114112Y0246973D01*
X0114112Y0245227D01*
X0114780Y0243614D01*
X0115493Y0242901D01*
X0115493Y0223799D01*
X0114280Y0222586D01*
X0113612Y0220973D01*
X0113612Y0219227D01*
X0114280Y0217614D01*
X0115514Y0216380D01*
X0117127Y0215712D01*
X0118873Y0215712D01*
X0120486Y0216380D01*
X0121720Y0217614D01*
X0122388Y0219227D01*
X0122388Y0220973D01*
X0121720Y0222586D01*
X0121507Y0222799D01*
X0121507Y0242901D01*
X0122220Y0243614D01*
X0122888Y0245227D01*
X0122888Y0246973D01*
X0122220Y0248586D01*
X0122888Y0245687D02*
X0195450Y0245687D01*
X0195450Y0242488D02*
X0121507Y0242488D01*
X0121507Y0239290D02*
X0195450Y0239290D01*
X0195450Y0236091D02*
X0121507Y0236091D01*
X0121507Y0232893D02*
X0128335Y0232893D01*
X0128371Y0232914D02*
X0126069Y0231584D01*
X0124189Y0229705D01*
X0122860Y0227402D01*
X0122172Y0224835D01*
X0122172Y0222176D01*
X0122860Y0219609D01*
X0124189Y0217306D01*
X0126069Y0215427D01*
X0128371Y0214097D01*
X0130939Y0213409D01*
X0133597Y0213409D01*
X0136165Y0214097D01*
X0138467Y0215427D01*
X0140347Y0217306D01*
X0141676Y0219609D01*
X0142364Y0222176D01*
X0142364Y0224835D01*
X0141676Y0227402D01*
X0140347Y0229705D01*
X0138467Y0231584D01*
X0136165Y0232914D01*
X0133597Y0233602D01*
X0130939Y0233602D01*
X0128371Y0232914D01*
X0124183Y0229694D02*
X0121507Y0229694D01*
X0121507Y0226496D02*
X0122617Y0226496D01*
X0122172Y0223297D02*
X0121507Y0223297D01*
X0122388Y0220099D02*
X0122728Y0220099D01*
X0121006Y0216900D02*
X0124595Y0216900D01*
X0129848Y0213702D02*
X0057564Y0213702D01*
X0056873Y0213988D02*
X0055127Y0213988D01*
X0053514Y0213320D01*
X0052280Y0212086D01*
X0051612Y0210473D01*
X0051612Y0208727D01*
X0051711Y0208488D01*
X0051627Y0208488D01*
X0050014Y0207820D01*
X0048780Y0206586D01*
X0048112Y0204973D01*
X0048112Y0203227D01*
X0048780Y0201614D01*
X0050014Y0200380D01*
X0051627Y0199712D01*
X0053373Y0199712D01*
X0054986Y0200380D01*
X0055699Y0201093D01*
X0153098Y0201093D01*
X0154203Y0201551D01*
X0162364Y0209712D01*
X0163373Y0209712D01*
X0164986Y0210380D01*
X0166220Y0211614D01*
X0166888Y0213227D01*
X0166888Y0214973D01*
X0166220Y0216586D01*
X0164986Y0217820D01*
X0163373Y0218488D01*
X0161627Y0218488D01*
X0160014Y0217820D01*
X0159238Y0217043D01*
X0159220Y0217086D01*
X0157986Y0218320D01*
X0156373Y0218988D01*
X0154627Y0218988D01*
X0153014Y0218320D01*
X0151780Y0217086D01*
X0151112Y0215473D01*
X0151112Y0213964D01*
X0149754Y0212607D01*
X0059199Y0212607D01*
X0058486Y0213320D01*
X0056873Y0213988D01*
X0054436Y0213702D02*
X0036856Y0213702D01*
X0038061Y0216900D02*
X0114994Y0216900D01*
X0113612Y0220099D02*
X0036995Y0220099D01*
X0036451Y0223297D02*
X0114991Y0223297D01*
X0115493Y0226496D02*
X0038061Y0226496D01*
X0037343Y0229694D02*
X0115493Y0229694D01*
X0115493Y0232893D02*
X0036047Y0232893D01*
X0038061Y0236091D02*
X0115493Y0236091D01*
X0115493Y0239290D02*
X0037510Y0239290D01*
X0035277Y0242488D02*
X0115493Y0242488D01*
X0114112Y0245687D02*
X0037940Y0245687D01*
X0037678Y0248885D02*
X0115080Y0248885D01*
X0136201Y0232893D02*
X0195450Y0232893D01*
X0195450Y0229694D02*
X0140353Y0229694D01*
X0141919Y0226496D02*
X0195450Y0226496D01*
X0195450Y0223297D02*
X0142364Y0223297D01*
X0141807Y0220099D02*
X0195450Y0220099D01*
X0195450Y0216900D02*
X0165906Y0216900D01*
X0166888Y0213702D02*
X0195708Y0213702D01*
X0203866Y0207305D02*
X0159957Y0207305D01*
X0156759Y0204106D02*
X0201100Y0204106D01*
X0199682Y0200908D02*
X0055514Y0200908D01*
X0049486Y0200908D02*
X0036187Y0200908D01*
X0037260Y0204106D02*
X0048112Y0204106D01*
X0049499Y0207305D02*
X0038061Y0207305D01*
X0036591Y0210503D02*
X0051624Y0210503D01*
X0038061Y0197709D02*
X0199203Y0197709D01*
X0199560Y0194511D02*
X0037452Y0194511D01*
X0035614Y0191312D02*
X0200838Y0191312D01*
X0203411Y0188114D02*
X0037997Y0188114D01*
X0042810Y0184915D02*
X0044002Y0184915D01*
X0043823Y0181717D02*
X0043798Y0181717D01*
X0047995Y0168923D02*
X0037662Y0168923D01*
X0037955Y0165724D02*
X0080113Y0165724D01*
X0082870Y0162526D02*
X0035367Y0162526D01*
X0037495Y0159327D02*
X0234820Y0159327D01*
X0234820Y0156129D02*
X0208365Y0156129D01*
X0210093Y0152930D02*
X0234820Y0152930D01*
X0234820Y0149732D02*
X0209515Y0149732D01*
X0209449Y0146533D02*
X0234820Y0146533D01*
X0234820Y0143334D02*
X0209948Y0143334D01*
X0208336Y0140136D02*
X0227460Y0140136D01*
X0233115Y0140136D02*
X0234820Y0140136D01*
X0234820Y0136937D02*
X0234676Y0136937D01*
X0234820Y0133739D02*
X0233475Y0133739D01*
X0234820Y0130540D02*
X0229874Y0130540D01*
X0230065Y0127342D02*
X0234820Y0127342D01*
X0234820Y0124143D02*
X0209081Y0124143D01*
X0200856Y0124143D02*
X0184110Y0124143D01*
X0177735Y0127342D02*
X0199987Y0127342D01*
X0199987Y0130540D02*
X0047498Y0130540D01*
X0046350Y0133739D02*
X0200702Y0133739D01*
X0199987Y0136937D02*
X0045203Y0136937D01*
X0044056Y0140136D02*
X0201601Y0140136D01*
X0195500Y0144600D02*
X0193000Y0147100D01*
X0074500Y0147600D01*
X0073331Y0143334D02*
X0042909Y0143334D01*
X0041776Y0152930D02*
X0039472Y0152930D01*
X0038061Y0156129D02*
X0201572Y0156129D01*
X0201597Y0156153D02*
X0201021Y0155577D01*
X0200543Y0154918D01*
X0200173Y0154193D01*
X0199921Y0153418D01*
X0199794Y0152614D01*
X0199794Y0152206D01*
X0204968Y0152206D01*
X0204968Y0152206D01*
X0204968Y0157381D01*
X0204561Y0157381D01*
X0203757Y0157254D01*
X0202982Y0157002D01*
X0202256Y0156632D01*
X0201597Y0156153D01*
X0204968Y0156129D02*
X0204969Y0156129D01*
X0204968Y0152930D02*
X0204969Y0152930D01*
X0199844Y0152930D02*
X0044563Y0152930D01*
X0014711Y0136937D02*
X0014026Y0136937D01*
X0011974Y0136937D02*
X0007200Y0136937D01*
X0007200Y0133739D02*
X0008340Y0133739D01*
X0008200Y0130540D02*
X0007200Y0130540D01*
X0007200Y0127342D02*
X0011155Y0127342D01*
X0008508Y0124143D02*
X0007200Y0124143D01*
X0007200Y0120945D02*
X0008032Y0120945D01*
X0007200Y0117746D02*
X0010179Y0117746D01*
X0008675Y0114548D02*
X0007200Y0114548D01*
X0007200Y0111349D02*
X0008018Y0111349D01*
X0007200Y0108151D02*
X0009774Y0108151D01*
X0008937Y0104952D02*
X0007200Y0104952D01*
X0007200Y0101754D02*
X0008018Y0101754D01*
X0007200Y0098555D02*
X0009369Y0098555D01*
X0009341Y0095357D02*
X0007200Y0095357D01*
X0007200Y0092158D02*
X0008018Y0092158D01*
X0007200Y0088960D02*
X0008965Y0088960D01*
X0009473Y0085761D02*
X0007200Y0085761D01*
X0007200Y0082563D02*
X0007855Y0082563D01*
X0007825Y0081970D02*
X0013000Y0081970D01*
X0013000Y0076795D01*
X0013000Y0071970D01*
X0013000Y0066795D01*
X0013000Y0061970D01*
X0013000Y0061970D01*
X0013000Y0071970D01*
X0013000Y0071970D01*
X0007825Y0071970D01*
X0013000Y0071970D01*
X0013000Y0071970D01*
X0013000Y0071970D01*
X0013000Y0081970D01*
X0013000Y0081970D01*
X0007825Y0081970D01*
X0007200Y0079364D02*
X0008520Y0079364D01*
X0007200Y0076166D02*
X0009971Y0076166D01*
X0013000Y0076166D02*
X0013000Y0076166D01*
X0013000Y0079364D02*
X0013000Y0079364D01*
X0013000Y0081970D02*
X0013000Y0081970D01*
X0014518Y0086918D02*
X0014212Y0087017D01*
X0014103Y0087035D01*
X0014518Y0087207D01*
X0014518Y0086970D01*
X0019693Y0086970D01*
X0019693Y0086970D01*
X0024868Y0086970D01*
X0024868Y0086734D01*
X0025395Y0086952D01*
X0027377Y0086952D01*
X0028097Y0086654D01*
X0028097Y0087286D01*
X0027377Y0086988D01*
X0025395Y0086988D01*
X0024868Y0087207D01*
X0024868Y0086970D01*
X0019693Y0086970D01*
X0019693Y0076970D01*
X0019693Y0076970D01*
X0024868Y0076970D01*
X0024868Y0076734D01*
X0025395Y0076952D01*
X0027377Y0076952D01*
X0028097Y0076654D01*
X0028097Y0077286D01*
X0027377Y0076988D01*
X0025395Y0076988D01*
X0024868Y0077207D01*
X0024868Y0076970D01*
X0019693Y0076970D01*
X0019693Y0072145D01*
X0019693Y0066970D01*
X0019693Y0066970D01*
X0024868Y0066970D01*
X0024868Y0066734D01*
X0025395Y0066952D01*
X0027377Y0066952D01*
X0028097Y0066654D01*
X0028097Y0067286D01*
X0027377Y0066988D01*
X0025395Y0066988D01*
X0024868Y0067207D01*
X0024868Y0066970D01*
X0019693Y0066970D01*
X0019693Y0061795D01*
X0019693Y0066970D01*
X0019693Y0066970D01*
X0019693Y0066970D01*
X0019693Y0076970D01*
X0019693Y0076970D01*
X0019693Y0076970D01*
X0019693Y0082145D01*
X0019693Y0086970D01*
X0019693Y0086970D01*
X0019693Y0086970D01*
X0014518Y0086970D01*
X0014518Y0086918D01*
X0019693Y0085761D02*
X0019693Y0085761D01*
X0019693Y0082563D02*
X0019693Y0082563D01*
X0019693Y0079364D02*
X0019693Y0079364D01*
X0019693Y0076166D02*
X0019693Y0076166D01*
X0019693Y0072967D02*
X0019693Y0072967D01*
X0019693Y0069769D02*
X0019693Y0069769D01*
X0019693Y0066570D02*
X0019693Y0066570D01*
X0019693Y0063372D02*
X0019693Y0063372D01*
X0017857Y0060173D02*
X0021738Y0060173D01*
X0014372Y0056975D02*
X0101520Y0056975D01*
X0101675Y0057279D02*
X0101258Y0056459D01*
X0100973Y0055584D01*
X0100829Y0054674D01*
X0100829Y0054214D01*
X0100829Y0053754D01*
X0100973Y0052845D01*
X0101258Y0051969D01*
X0101675Y0051149D01*
X0102217Y0050404D01*
X0102867Y0049754D01*
X0103612Y0049212D01*
X0104432Y0048795D01*
X0105308Y0048510D01*
X0106217Y0048366D01*
X0106677Y0048366D01*
X0106677Y0054214D01*
X0106677Y0054214D01*
X0100829Y0054214D01*
X0106677Y0054214D01*
X0106677Y0054214D01*
X0106677Y0048366D01*
X0107137Y0048366D01*
X0108047Y0048510D01*
X0108922Y0048795D01*
X0109742Y0049212D01*
X0110487Y0049754D01*
X0111138Y0050404D01*
X0111679Y0051149D01*
X0112097Y0051969D01*
X0112381Y0052845D01*
X0112525Y0053754D01*
X0112525Y0054214D01*
X0106677Y0054214D01*
X0106677Y0066277D01*
X0135000Y0094600D01*
X0125902Y0080107D02*
X0124797Y0079649D01*
X0122797Y0077649D01*
X0121951Y0076803D01*
X0121493Y0075698D01*
X0121493Y0057002D01*
X0121951Y0055897D01*
X0141993Y0035854D01*
X0141993Y0034928D01*
X0140316Y0034928D01*
X0139432Y0034562D01*
X0138755Y0033885D01*
X0138388Y0033000D01*
X0138388Y0027318D01*
X0138755Y0026433D01*
X0139432Y0025756D01*
X0140316Y0025390D01*
X0153873Y0025390D01*
X0154757Y0025756D01*
X0155434Y0026433D01*
X0155649Y0026952D01*
X0165311Y0026952D01*
X0165526Y0026433D01*
X0166203Y0025756D01*
X0167088Y0025390D01*
X0180644Y0025390D01*
X0181529Y0025756D01*
X0182206Y0026433D01*
X0182572Y0027318D01*
X0182572Y0033000D01*
X0182206Y0033885D01*
X0182025Y0034066D01*
X0182305Y0034345D01*
X0182627Y0034212D01*
X0184373Y0034212D01*
X0185986Y0034880D01*
X0187220Y0036114D01*
X0187888Y0037727D01*
X0187888Y0039473D01*
X0187220Y0041086D01*
X0185986Y0042320D01*
X0184373Y0042988D01*
X0182627Y0042988D01*
X0181014Y0042320D01*
X0179780Y0041086D01*
X0179242Y0039788D01*
X0174383Y0034928D01*
X0167088Y0034928D01*
X0166203Y0034562D01*
X0165526Y0033885D01*
X0165311Y0033366D01*
X0155649Y0033366D01*
X0155434Y0033885D01*
X0154757Y0034562D01*
X0153873Y0034928D01*
X0148007Y0034928D01*
X0148007Y0037698D01*
X0147549Y0038803D01*
X0146703Y0039649D01*
X0127507Y0058846D01*
X0127507Y0070887D01*
X0128514Y0069880D01*
X0129434Y0069499D01*
X0135230Y0063703D01*
X0136703Y0063093D01*
X0154804Y0063093D01*
X0157929Y0059869D01*
X0156733Y0059869D01*
X0154655Y0059008D01*
X0153064Y0057418D01*
X0152203Y0055339D01*
X0152203Y0053089D01*
X0153064Y0051011D01*
X0154655Y0049420D01*
X0156733Y0048559D01*
X0158983Y0048559D01*
X0161062Y0049420D01*
X0162652Y0051011D01*
X0163513Y0053089D01*
X0163513Y0054059D01*
X0163605Y0054013D01*
X0163678Y0053939D01*
X0164317Y0053662D01*
X0170270Y0050724D01*
X0171214Y0049780D01*
X0172827Y0049112D01*
X0174573Y0049112D01*
X0176186Y0049780D01*
X0176353Y0049947D01*
X0178505Y0049992D01*
X0192153Y0049741D01*
X0192314Y0049580D01*
X0193927Y0048912D01*
X0195673Y0048912D01*
X0197286Y0049580D01*
X0198520Y0050814D01*
X0199188Y0052427D01*
X0199188Y0054173D01*
X0198520Y0055786D01*
X0197286Y0057020D01*
X0195673Y0057688D01*
X0193927Y0057688D01*
X0192314Y0057020D01*
X0192249Y0056955D01*
X0179210Y0057195D01*
X0179142Y0057221D01*
X0178496Y0057208D01*
X0177849Y0057220D01*
X0177781Y0057193D01*
X0176245Y0057161D01*
X0176186Y0057220D01*
X0174573Y0057888D01*
X0173863Y0057888D01*
X0168395Y0060587D01*
X0159909Y0069340D01*
X0159897Y0069370D01*
X0159355Y0069912D01*
X0158822Y0070461D01*
X0158793Y0070474D01*
X0158770Y0070497D01*
X0158538Y0070593D01*
X0168801Y0070593D01*
X0169514Y0069880D01*
X0171127Y0069212D01*
X0172873Y0069212D01*
X0174486Y0069880D01*
X0175720Y0071114D01*
X0176388Y0072727D01*
X0176388Y0073593D01*
X0179801Y0073593D01*
X0180514Y0072880D01*
X0182127Y0072212D01*
X0183873Y0072212D01*
X0185486Y0072880D01*
X0186720Y0074114D01*
X0187388Y0075727D01*
X0187388Y0077473D01*
X0187131Y0078093D01*
X0192082Y0078093D01*
X0192280Y0077614D01*
X0193514Y0076380D01*
X0195127Y0075712D01*
X0196873Y0075712D01*
X0198486Y0076380D01*
X0198655Y0076549D01*
X0200431Y0076588D01*
X0200861Y0076529D01*
X0201031Y0076574D01*
X0200745Y0076288D01*
X0199987Y0074457D01*
X0199987Y0072475D01*
X0200745Y0070644D01*
X0201137Y0070252D01*
X0201030Y0070208D01*
X0200353Y0069530D01*
X0199987Y0068646D01*
X0199987Y0062539D01*
X0200353Y0061654D01*
X0201030Y0060977D01*
X0201915Y0060610D01*
X0208022Y0060610D01*
X0208907Y0060977D01*
X0209584Y0061654D01*
X0209950Y0062539D01*
X0209950Y0062778D01*
X0210324Y0062793D01*
X0222801Y0062793D01*
X0223514Y0062080D01*
X0225127Y0061412D01*
X0226873Y0061412D01*
X0228486Y0062080D01*
X0229720Y0063314D01*
X0230388Y0064927D01*
X0230388Y0066673D01*
X0229720Y0068286D01*
X0228729Y0069277D01*
X0229127Y0069112D01*
X0230873Y0069112D01*
X0232486Y0069780D01*
X0233720Y0071014D01*
X0234388Y0072627D01*
X0234388Y0074373D01*
X0233720Y0075986D01*
X0232486Y0077220D01*
X0230873Y0077888D01*
X0229127Y0077888D01*
X0227514Y0077220D01*
X0226773Y0076478D01*
X0225923Y0076471D01*
X0209007Y0076473D01*
X0208077Y0077403D01*
X0209192Y0078518D01*
X0209950Y0080349D01*
X0209950Y0082331D01*
X0209192Y0084162D01*
X0208193Y0085161D01*
X0208340Y0085267D01*
X0208916Y0085843D01*
X0209394Y0086502D01*
X0209764Y0087228D01*
X0210016Y0088002D01*
X0210143Y0088807D01*
X0210143Y0089214D01*
X0204969Y0089214D01*
X0204969Y0089214D01*
X0210143Y0089214D01*
X0210143Y0089621D01*
X0210016Y0090426D01*
X0209764Y0091201D01*
X0209394Y0091926D01*
X0208916Y0092585D01*
X0208340Y0093161D01*
X0207681Y0093640D01*
X0206955Y0094010D01*
X0206180Y0094262D01*
X0205376Y0094389D01*
X0204969Y0094389D01*
X0204969Y0089214D01*
X0204968Y0089214D01*
X0199794Y0089214D01*
X0199794Y0088807D01*
X0199921Y0088002D01*
X0200173Y0087228D01*
X0200543Y0086502D01*
X0201021Y0085843D01*
X0201597Y0085267D01*
X0201744Y0085161D01*
X0200745Y0084162D01*
X0200650Y0083933D01*
X0200132Y0083797D01*
X0198543Y0083763D01*
X0198486Y0083820D01*
X0197446Y0084251D01*
X0197397Y0084370D01*
X0196270Y0085497D01*
X0194797Y0086107D01*
X0161793Y0086107D01*
X0160873Y0086488D01*
X0159127Y0086488D01*
X0157514Y0085820D01*
X0156280Y0084586D01*
X0155612Y0082973D01*
X0155612Y0081227D01*
X0156280Y0079614D01*
X0157514Y0078380D01*
X0159127Y0077712D01*
X0160873Y0077712D01*
X0161793Y0078093D01*
X0170864Y0078093D01*
X0170763Y0077849D01*
X0170755Y0077834D01*
X0169514Y0077320D01*
X0168801Y0076607D01*
X0153793Y0076607D01*
X0152873Y0076988D01*
X0151364Y0076988D01*
X0149549Y0078803D01*
X0149549Y0078803D01*
X0148703Y0079649D01*
X0147598Y0080107D01*
X0125902Y0080107D01*
X0124512Y0079364D02*
X0037479Y0079364D01*
X0038061Y0076166D02*
X0121687Y0076166D01*
X0121493Y0072967D02*
X0036121Y0072967D01*
X0037312Y0069769D02*
X0121493Y0069769D01*
X0121493Y0066570D02*
X0038061Y0066570D01*
X0036526Y0063372D02*
X0121493Y0063372D01*
X0121493Y0060173D02*
X0031034Y0060173D01*
X0013000Y0060173D02*
X0013000Y0060173D01*
X0013000Y0056975D02*
X0013000Y0056975D01*
X0011628Y0056975D02*
X0007200Y0056975D01*
X0007200Y0060173D02*
X0008143Y0060173D01*
X0008014Y0063372D02*
X0007200Y0063372D01*
X0007200Y0066570D02*
X0010630Y0066570D01*
X0013000Y0066570D02*
X0013000Y0066570D01*
X0013000Y0063372D02*
X0013000Y0063372D01*
X0013000Y0069769D02*
X0013000Y0069769D01*
X0013000Y0072967D02*
X0013000Y0072967D01*
X0007919Y0072967D02*
X0007200Y0072967D01*
X0007200Y0069769D02*
X0008314Y0069769D01*
X0007200Y0053776D02*
X0100829Y0053776D01*
X0102091Y0050578D02*
X0007200Y0050578D01*
X0007200Y0047379D02*
X0130468Y0047379D01*
X0127270Y0050578D02*
X0111264Y0050578D01*
X0112525Y0053776D02*
X0124071Y0053776D01*
X0121504Y0056975D02*
X0111834Y0056975D01*
X0111679Y0057279D02*
X0111138Y0058024D01*
X0110487Y0058675D01*
X0109742Y0059216D01*
X0108922Y0059634D01*
X0108047Y0059918D01*
X0107137Y0060062D01*
X0106677Y0060062D01*
X0106217Y0060062D01*
X0105308Y0059918D01*
X0104432Y0059634D01*
X0103612Y0059216D01*
X0102867Y0058675D01*
X0102217Y0058024D01*
X0101675Y0057279D01*
X0106677Y0056975D02*
X0106677Y0056975D01*
X0106677Y0054214D02*
X0106677Y0060062D01*
X0106677Y0054214D01*
X0106677Y0054214D01*
X0106677Y0054214D01*
X0112525Y0054214D01*
X0112525Y0054674D01*
X0112381Y0055584D01*
X0112097Y0056459D01*
X0111679Y0057279D01*
X0106677Y0053776D02*
X0106677Y0053776D01*
X0106677Y0050578D02*
X0106677Y0050578D01*
X0101425Y0040982D02*
X0136865Y0040982D01*
X0133667Y0044181D02*
X0007200Y0044181D01*
X0035457Y0082563D02*
X0155612Y0082563D01*
X0156530Y0079364D02*
X0148988Y0079364D01*
X0157455Y0085761D02*
X0037970Y0085761D01*
X0037647Y0088960D02*
X0199794Y0088960D01*
X0199794Y0089214D02*
X0204968Y0089214D01*
X0204968Y0089214D01*
X0204968Y0094389D01*
X0204561Y0094389D01*
X0203757Y0094262D01*
X0202982Y0094010D01*
X0202256Y0093640D01*
X0201597Y0093161D01*
X0201021Y0092585D01*
X0200543Y0091926D01*
X0200173Y0091201D01*
X0199921Y0090426D01*
X0199794Y0089621D01*
X0199794Y0089214D01*
X0200711Y0092158D02*
X0034480Y0092158D01*
X0031677Y0092158D02*
X0031368Y0092158D01*
X0037803Y0095357D02*
X0234820Y0095357D01*
X0234820Y0092158D02*
X0209226Y0092158D01*
X0210143Y0088960D02*
X0234820Y0088960D01*
X0234820Y0085761D02*
X0208834Y0085761D01*
X0209854Y0082563D02*
X0234820Y0082563D01*
X0234820Y0079364D02*
X0209542Y0079364D01*
X0201103Y0085761D02*
X0195632Y0085761D01*
X0194000Y0082100D02*
X0160000Y0082100D01*
X0159498Y0069769D02*
X0169783Y0069769D01*
X0174217Y0069769D02*
X0200591Y0069769D01*
X0199987Y0072967D02*
X0185573Y0072967D01*
X0187388Y0076166D02*
X0194031Y0076166D01*
X0197969Y0076166D02*
X0200694Y0076166D01*
X0199987Y0066570D02*
X0162594Y0066570D01*
X0165695Y0063372D02*
X0199987Y0063372D01*
X0197331Y0056975D02*
X0234820Y0056975D01*
X0234820Y0060173D02*
X0169233Y0060173D01*
X0166000Y0057300D02*
X0156500Y0067100D01*
X0137500Y0067100D01*
X0131000Y0073600D01*
X0128783Y0069769D02*
X0127507Y0069769D01*
X0127507Y0066570D02*
X0132363Y0066570D01*
X0136030Y0063372D02*
X0127507Y0063372D01*
X0127507Y0060173D02*
X0157634Y0060173D01*
X0152881Y0056975D02*
X0129378Y0056975D01*
X0132576Y0053776D02*
X0152203Y0053776D01*
X0153497Y0050578D02*
X0135775Y0050578D01*
X0138973Y0047379D02*
X0234820Y0047379D01*
X0234820Y0044181D02*
X0142172Y0044181D01*
X0145371Y0040982D02*
X0179737Y0040982D01*
X0177238Y0037784D02*
X0147972Y0037784D01*
X0154701Y0034585D02*
X0166260Y0034585D01*
X0167311Y0019373D02*
X0166809Y0019273D01*
X0166335Y0019077D01*
X0165910Y0018793D01*
X0165547Y0018431D01*
X0165263Y0018005D01*
X0165067Y0017532D01*
X0164967Y0017029D01*
X0164967Y0014411D01*
X0164967Y0011793D01*
X0165067Y0011290D01*
X0165263Y0010817D01*
X0165547Y0010391D01*
X0165910Y0010029D01*
X0166335Y0009745D01*
X0166809Y0009549D01*
X0167311Y0009449D01*
X0173866Y0009449D01*
X0173866Y0014411D01*
X0164967Y0014411D01*
X0173866Y0014411D01*
X0173866Y0014411D01*
X0173866Y0014411D01*
X0173866Y0019373D01*
X0167311Y0019373D01*
X0165709Y0018593D02*
X0155251Y0018593D01*
X0155413Y0018431D02*
X0155051Y0018793D01*
X0154625Y0019077D01*
X0154152Y0019273D01*
X0153650Y0019373D01*
X0147095Y0019373D01*
X0147095Y0014411D01*
X0155994Y0014411D01*
X0155994Y0017029D01*
X0155894Y0017532D01*
X0155698Y0018005D01*
X0155413Y0018431D01*
X0155994Y0015394D02*
X0164967Y0015394D01*
X0164967Y0012196D02*
X0155994Y0012196D01*
X0155994Y0011793D02*
X0155994Y0014411D01*
X0147095Y0014411D01*
X0147095Y0014411D01*
X0147094Y0014411D01*
X0138195Y0014411D01*
X0138195Y0011793D01*
X0138295Y0011290D01*
X0138491Y0010817D01*
X0138776Y0010391D01*
X0139138Y0010029D01*
X0139564Y0009745D01*
X0140037Y0009549D01*
X0140539Y0009449D01*
X0147094Y0009449D01*
X0147094Y0014411D01*
X0147094Y0014411D01*
X0138195Y0014411D01*
X0138195Y0017029D01*
X0138295Y0017532D01*
X0138491Y0018005D01*
X0138776Y0018431D01*
X0139138Y0018793D01*
X0139564Y0019077D01*
X0140037Y0019273D01*
X0140539Y0019373D01*
X0147094Y0019373D01*
X0147094Y0014411D01*
X0147095Y0014411D01*
X0147095Y0009449D01*
X0153650Y0009449D01*
X0154152Y0009549D01*
X0154625Y0009745D01*
X0155051Y0010029D01*
X0155413Y0010391D01*
X0155698Y0010817D01*
X0155894Y0011290D01*
X0155994Y0011793D01*
X0147095Y0012196D02*
X0147094Y0012196D01*
X0147094Y0015394D02*
X0147095Y0015394D01*
X0147094Y0018593D02*
X0147095Y0018593D01*
X0138938Y0018593D02*
X0101425Y0018593D01*
X0101425Y0021791D02*
X0234820Y0021791D01*
X0234820Y0018593D02*
X0182023Y0018593D01*
X0182185Y0018431D02*
X0181823Y0018793D01*
X0181397Y0019077D01*
X0180924Y0019273D01*
X0180421Y0019373D01*
X0173866Y0019373D01*
X0173866Y0014411D01*
X0173866Y0014411D01*
X0173866Y0009449D01*
X0180421Y0009449D01*
X0180924Y0009549D01*
X0181397Y0009745D01*
X0181823Y0010029D01*
X0182185Y0010391D01*
X0182469Y0010817D01*
X0182665Y0011290D01*
X0182765Y0011793D01*
X0182765Y0014411D01*
X0182765Y0017029D01*
X0182665Y0017532D01*
X0182469Y0018005D01*
X0182185Y0018431D01*
X0182765Y0015394D02*
X0234820Y0015394D01*
X0234820Y0012196D02*
X0182765Y0012196D01*
X0182765Y0014411D02*
X0173866Y0014411D01*
X0182765Y0014411D01*
X0173866Y0014411D02*
X0173866Y0014411D01*
X0173866Y0015394D02*
X0173866Y0015394D01*
X0173866Y0012196D02*
X0173866Y0012196D01*
X0173866Y0018593D02*
X0173866Y0018593D01*
X0182572Y0028188D02*
X0234820Y0028188D01*
X0234820Y0031387D02*
X0182572Y0031387D01*
X0185274Y0034585D02*
X0234820Y0034585D01*
X0234820Y0037784D02*
X0187888Y0037784D01*
X0187263Y0040982D02*
X0234820Y0040982D01*
X0234820Y0050578D02*
X0198284Y0050578D01*
X0199188Y0053776D02*
X0234820Y0053776D01*
X0234820Y0063372D02*
X0229744Y0063372D01*
X0230388Y0066570D02*
X0234820Y0066570D01*
X0234820Y0069769D02*
X0232459Y0069769D01*
X0234388Y0072967D02*
X0234820Y0072967D01*
X0234820Y0076166D02*
X0233540Y0076166D01*
X0234820Y0098555D02*
X0058661Y0098555D01*
X0060453Y0101754D02*
X0234820Y0101754D01*
X0234820Y0104952D02*
X0233860Y0104952D01*
X0234314Y0108151D02*
X0234820Y0108151D01*
X0234820Y0111349D02*
X0231208Y0111349D01*
X0229258Y0114548D02*
X0234820Y0114548D01*
X0234820Y0117746D02*
X0199580Y0117746D01*
X0194676Y0120945D02*
X0234820Y0120945D01*
X0204968Y0092158D02*
X0204969Y0092158D01*
X0201311Y0104952D02*
X0064565Y0104952D01*
X0068678Y0108151D02*
X0196607Y0108151D01*
X0191903Y0111349D02*
X0072790Y0111349D01*
X0053339Y0098555D02*
X0037814Y0098555D01*
X0008367Y0140136D02*
X0007200Y0140136D01*
X0007200Y0143334D02*
X0008173Y0143334D01*
X0007200Y0146533D02*
X0010998Y0146533D01*
X0008535Y0149732D02*
X0007200Y0149732D01*
X0007200Y0152930D02*
X0008018Y0152930D01*
X0007200Y0156129D02*
X0009993Y0156129D01*
X0008702Y0159327D02*
X0007200Y0159327D01*
X0007200Y0162526D02*
X0008018Y0162526D01*
X0007200Y0165724D02*
X0009709Y0165724D01*
X0009002Y0168923D02*
X0007200Y0168923D01*
X0007200Y0172121D02*
X0008018Y0172121D01*
X0007200Y0175320D02*
X0009304Y0175320D01*
X0009406Y0178518D02*
X0007200Y0178518D01*
X0007200Y0181717D02*
X0008018Y0181717D01*
X0007200Y0184915D02*
X0008900Y0184915D01*
X0009811Y0188114D02*
X0007200Y0188114D01*
X0007200Y0191312D02*
X0008018Y0191312D01*
X0008660Y0194511D02*
X0007200Y0194511D01*
X0007200Y0197709D02*
X0010268Y0197709D01*
X0008048Y0200908D02*
X0007200Y0200908D01*
X0007200Y0204106D02*
X0008492Y0204106D01*
X0007200Y0207305D02*
X0011245Y0207305D01*
X0008215Y0210503D02*
X0007200Y0210503D01*
X0007200Y0213702D02*
X0008325Y0213702D01*
X0007200Y0216900D02*
X0011884Y0216900D01*
X0014116Y0216900D02*
X0014711Y0216900D01*
X0008383Y0220099D02*
X0007200Y0220099D01*
X0007200Y0223297D02*
X0008157Y0223297D01*
X0007200Y0226496D02*
X0010908Y0226496D01*
X0008550Y0229694D02*
X0007200Y0229694D01*
X0007200Y0232893D02*
X0008018Y0232893D01*
X0007200Y0236091D02*
X0010076Y0236091D01*
X0008718Y0239290D02*
X0007200Y0239290D01*
X0007200Y0242488D02*
X0008018Y0242488D01*
X0007200Y0245687D02*
X0009671Y0245687D01*
X0009039Y0248885D02*
X0007200Y0248885D01*
X0007200Y0252084D02*
X0008018Y0252084D01*
X0007200Y0255282D02*
X0009267Y0255282D01*
X0007200Y0258481D02*
X0014926Y0258481D01*
X0018044Y0261679D02*
X0007200Y0261679D01*
X0021342Y0261679D02*
X0031430Y0261679D01*
X0028312Y0258481D02*
X0024459Y0258481D01*
X0031368Y0252084D02*
X0031857Y0252084D01*
X0088745Y0175320D02*
X0142457Y0175320D01*
X0135736Y0143334D02*
X0075669Y0143334D01*
X0086130Y0162526D02*
X0234820Y0162526D01*
X0234820Y0165724D02*
X0088887Y0165724D01*
X0088288Y0168923D02*
X0234820Y0168923D01*
X0234820Y0172121D02*
X0088430Y0172121D01*
X0134688Y0213702D02*
X0150849Y0213702D01*
X0151703Y0216900D02*
X0139940Y0216900D01*
X0165109Y0210503D02*
X0234820Y0210503D01*
X0234820Y0207305D02*
X0219457Y0207305D01*
X0222222Y0204106D02*
X0234820Y0204106D01*
X0234820Y0200908D02*
X0223641Y0200908D01*
X0224120Y0197709D02*
X0234820Y0197709D01*
X0234820Y0194511D02*
X0223763Y0194511D01*
X0222485Y0191312D02*
X0234820Y0191312D01*
X0234820Y0188114D02*
X0219912Y0188114D01*
X0228799Y0175320D02*
X0234820Y0175320D01*
X0234820Y0178518D02*
X0229762Y0178518D01*
X0234582Y0181717D02*
X0234820Y0181717D01*
X0234820Y0184915D02*
X0234403Y0184915D01*
X0200422Y0149732D02*
X0196035Y0149732D01*
X0171000Y0142600D02*
X0171000Y0132324D01*
X0176388Y0072967D02*
X0180427Y0072967D01*
X0191159Y0056975D02*
X0192269Y0056975D01*
X0173700Y0053500D02*
X0166000Y0057300D01*
X0164053Y0053776D02*
X0163513Y0053776D01*
X0162219Y0050578D02*
X0170416Y0050578D01*
X0140064Y0037784D02*
X0101425Y0037784D01*
X0101425Y0034585D02*
X0139488Y0034585D01*
X0138388Y0031387D02*
X0101425Y0031387D01*
X0101425Y0028188D02*
X0138388Y0028188D01*
X0138195Y0015394D02*
X0101425Y0015394D01*
X0101425Y0012196D02*
X0138195Y0012196D01*
X0101425Y0008997D02*
X0234820Y0008997D01*
X0234820Y0024990D02*
X0101425Y0024990D01*
M02*
