G75*
%MOIN*%
%OFA0B0*%
%FSLAX25Y25*%
%IPPOS*%
%LPD*%
%AMOC8*
5,1,8,0,0,1.08239X$1,22.5*
%
%ADD10C,0.00600*%
%ADD11C,0.00800*%
%ADD12C,0.00500*%
%ADD13C,0.00400*%
%ADD14C,0.00000*%
%ADD15C,0.00300*%
%ADD16R,0.01969X0.05512*%
%ADD17C,0.01000*%
D10*
X0112985Y0049095D02*
X0117255Y0049095D01*
X0150073Y0048719D02*
X0154344Y0048719D01*
X0152208Y0050854D02*
X0152208Y0046584D01*
X0156809Y0065031D02*
X0156809Y0070200D01*
X0160978Y0070200D01*
X0165219Y0070200D02*
X0169191Y0070200D01*
X0169191Y0065031D01*
X0164663Y0065000D02*
X0161282Y0065000D01*
X0176809Y0065031D02*
X0176809Y0070200D01*
X0180978Y0070200D01*
X0185219Y0070200D02*
X0189191Y0070200D01*
X0189191Y0065031D01*
X0184663Y0065000D02*
X0181282Y0065000D01*
X0140789Y0240953D02*
X0131589Y0240953D01*
X0131589Y0260153D02*
X0134989Y0260153D01*
X0137389Y0260153D01*
X0140789Y0260153D01*
D11*
X0026198Y0017568D02*
X0026198Y0016868D01*
X0026898Y0016167D01*
X0028299Y0016167D01*
X0029000Y0016868D01*
X0029000Y0017568D01*
X0028299Y0018269D01*
X0026898Y0018269D01*
X0026198Y0018969D01*
X0026198Y0019670D01*
X0026898Y0020371D01*
X0028299Y0020371D01*
X0029000Y0019670D01*
X0029000Y0018969D01*
X0028299Y0018269D01*
X0026898Y0018269D02*
X0026198Y0017568D01*
X0030802Y0016868D02*
X0031502Y0016167D01*
X0032903Y0016167D01*
X0033604Y0016868D01*
X0033604Y0017568D01*
X0032903Y0018269D01*
X0030802Y0018269D01*
X0030802Y0016868D01*
X0030802Y0018269D02*
X0032203Y0019670D01*
X0033604Y0020371D01*
X0035405Y0019670D02*
X0035405Y0018969D01*
X0036106Y0018269D01*
X0037507Y0018269D01*
X0038208Y0017568D01*
X0038208Y0016868D01*
X0037507Y0016167D01*
X0036106Y0016167D01*
X0035405Y0016868D01*
X0035405Y0017568D01*
X0036106Y0018269D01*
X0037507Y0018269D02*
X0038208Y0018969D01*
X0038208Y0019670D01*
X0037507Y0020371D01*
X0036106Y0020371D01*
X0035405Y0019670D01*
X0034210Y0023518D02*
X0034210Y0025620D01*
X0033510Y0026320D01*
X0031408Y0026320D01*
X0031408Y0023518D01*
X0029606Y0023518D02*
X0029606Y0026320D01*
X0028205Y0027722D01*
X0026804Y0026320D01*
X0026804Y0023518D01*
X0026804Y0025620D02*
X0029606Y0025620D01*
X0028667Y0029728D02*
X0025865Y0029728D01*
X0025865Y0033931D01*
X0030468Y0031829D02*
X0030468Y0030428D01*
X0031169Y0029728D01*
X0032570Y0029728D01*
X0033271Y0030428D01*
X0033271Y0031829D01*
X0032570Y0032530D01*
X0031169Y0032530D01*
X0030468Y0031829D01*
X0035072Y0031129D02*
X0037174Y0031129D01*
X0037875Y0031829D01*
X0037875Y0033231D01*
X0037174Y0033931D01*
X0035072Y0033931D01*
X0035072Y0029728D01*
X0036474Y0031129D02*
X0037875Y0029728D01*
X0039676Y0030428D02*
X0040377Y0031129D01*
X0042479Y0031129D01*
X0042479Y0031829D02*
X0042479Y0029728D01*
X0040377Y0029728D01*
X0039676Y0030428D01*
X0040377Y0032530D02*
X0041778Y0032530D01*
X0042479Y0031829D01*
X0044280Y0029728D02*
X0045681Y0031129D01*
X0047083Y0029728D01*
X0047083Y0033931D01*
X0048884Y0032530D02*
X0050285Y0033931D01*
X0051687Y0032530D01*
X0051687Y0029728D01*
X0053488Y0029728D02*
X0053488Y0033931D01*
X0056291Y0029728D01*
X0056291Y0033931D01*
X0051687Y0031829D02*
X0048884Y0031829D01*
X0048884Y0032530D02*
X0048884Y0029728D01*
X0048289Y0026320D02*
X0050391Y0026320D01*
X0051091Y0025620D01*
X0051091Y0023518D01*
X0052893Y0024219D02*
X0053593Y0024919D01*
X0055695Y0024919D01*
X0055695Y0025620D02*
X0055695Y0023518D01*
X0053593Y0023518D01*
X0052893Y0024219D01*
X0053593Y0026320D02*
X0054995Y0026320D01*
X0055695Y0025620D01*
X0052020Y0020371D02*
X0052020Y0016167D01*
X0053821Y0016167D02*
X0056624Y0016167D01*
X0056624Y0018969D02*
X0053821Y0018969D01*
X0052020Y0018269D02*
X0049217Y0018269D01*
X0049217Y0016167D02*
X0049217Y0020371D01*
X0047416Y0020371D02*
X0046015Y0018969D01*
X0044613Y0020371D01*
X0044613Y0016167D01*
X0047416Y0016167D02*
X0047416Y0020371D01*
X0048289Y0023518D02*
X0048289Y0026320D01*
X0046487Y0025620D02*
X0046487Y0023518D01*
X0046487Y0025620D02*
X0045787Y0026320D01*
X0043685Y0026320D01*
X0043685Y0023518D01*
X0041883Y0024919D02*
X0041883Y0025620D01*
X0041183Y0026320D01*
X0039782Y0026320D01*
X0039081Y0025620D01*
X0039081Y0024219D01*
X0039782Y0023518D01*
X0041183Y0023518D01*
X0041883Y0024919D02*
X0039081Y0024919D01*
X0037413Y0023518D02*
X0036712Y0024219D01*
X0036712Y0027021D01*
X0036012Y0026320D02*
X0037413Y0026320D01*
X0044280Y0029728D02*
X0044280Y0033931D01*
X0056624Y0018969D02*
X0053821Y0016167D01*
X0184522Y0164870D02*
X0188726Y0164870D01*
X0188726Y0167672D01*
X0188025Y0169474D02*
X0188726Y0170175D01*
X0188726Y0171576D01*
X0188025Y0172276D01*
X0186624Y0172276D01*
X0185924Y0171576D01*
X0185924Y0170175D01*
X0186624Y0169474D01*
X0188025Y0169474D01*
X0187325Y0174078D02*
X0187325Y0176180D01*
X0186624Y0176880D01*
X0185223Y0176880D01*
X0184522Y0176180D01*
X0184522Y0174078D01*
X0188726Y0174078D01*
X0187325Y0175479D02*
X0188726Y0176880D01*
X0188025Y0178682D02*
X0187325Y0179382D01*
X0187325Y0181484D01*
X0186624Y0181484D02*
X0188726Y0181484D01*
X0188726Y0179382D01*
X0188025Y0178682D01*
X0185924Y0179382D02*
X0185924Y0180784D01*
X0186624Y0181484D01*
X0184522Y0183286D02*
X0188726Y0183286D01*
X0187325Y0184687D01*
X0188726Y0186088D01*
X0184522Y0186088D01*
X0185924Y0187890D02*
X0184522Y0189291D01*
X0185924Y0190692D01*
X0188726Y0190692D01*
X0188726Y0192494D02*
X0184522Y0192494D01*
X0188726Y0195296D01*
X0184522Y0195296D01*
X0186624Y0190692D02*
X0186624Y0187890D01*
X0185924Y0187890D02*
X0188726Y0187890D01*
X0178316Y0193583D02*
X0175113Y0193583D01*
X0175113Y0195184D02*
X0175113Y0195985D01*
X0175113Y0195184D02*
X0176714Y0193583D01*
X0178316Y0197880D02*
X0173512Y0197880D01*
X0178316Y0197880D02*
X0178316Y0201082D01*
X0177515Y0203036D02*
X0176714Y0203837D01*
X0176714Y0206239D01*
X0175914Y0206239D02*
X0178316Y0206239D01*
X0178316Y0203837D01*
X0177515Y0203036D01*
X0175113Y0203837D02*
X0175113Y0205438D01*
X0175914Y0206239D01*
X0175113Y0208192D02*
X0175113Y0210595D01*
X0175914Y0211395D01*
X0177515Y0211395D01*
X0178316Y0210595D01*
X0178316Y0208192D01*
X0173512Y0208192D01*
X0177515Y0213349D02*
X0177515Y0214150D01*
X0178316Y0214150D01*
X0178316Y0213349D01*
X0177515Y0213349D01*
X0177515Y0215927D02*
X0175914Y0215927D01*
X0175113Y0216728D01*
X0175113Y0218329D01*
X0175914Y0219130D01*
X0177515Y0219130D01*
X0178316Y0218329D01*
X0178316Y0216728D01*
X0177515Y0215927D01*
X0176714Y0221083D02*
X0175113Y0222685D01*
X0175113Y0223486D01*
X0175914Y0225380D02*
X0177515Y0225380D01*
X0178316Y0226181D01*
X0178316Y0228583D01*
X0179116Y0228583D02*
X0175113Y0228583D01*
X0175113Y0226181D01*
X0175914Y0225380D01*
X0179917Y0226982D02*
X0179917Y0227783D01*
X0179116Y0228583D01*
X0178316Y0230537D02*
X0178316Y0231338D01*
X0177515Y0231338D01*
X0177515Y0230537D01*
X0178316Y0230537D01*
X0177515Y0233115D02*
X0175113Y0233115D01*
X0177515Y0233115D02*
X0178316Y0233916D01*
X0178316Y0236318D01*
X0175113Y0236318D01*
X0173512Y0238271D02*
X0178316Y0238271D01*
X0176714Y0238271D02*
X0175113Y0240673D01*
X0176714Y0238271D02*
X0178316Y0240673D01*
X0183822Y0241535D02*
X0184522Y0241535D01*
X0185924Y0241535D02*
X0188726Y0241535D01*
X0188726Y0240835D02*
X0188726Y0242236D01*
X0188025Y0243904D02*
X0188726Y0244605D01*
X0188726Y0246706D01*
X0188726Y0248508D02*
X0185924Y0248508D01*
X0187325Y0248508D02*
X0185924Y0249909D01*
X0185924Y0250610D01*
X0186624Y0252345D02*
X0185924Y0253045D01*
X0185924Y0254446D01*
X0186624Y0255147D01*
X0188025Y0255147D01*
X0188726Y0254446D01*
X0188726Y0253045D01*
X0188025Y0252345D01*
X0186624Y0252345D01*
X0186624Y0256949D02*
X0185924Y0256949D01*
X0185924Y0257649D01*
X0186624Y0257649D01*
X0186624Y0256949D01*
X0188025Y0256949D02*
X0188726Y0256949D01*
X0188726Y0257649D01*
X0188025Y0257649D01*
X0188025Y0256949D01*
X0188726Y0259251D02*
X0184522Y0259251D01*
X0184522Y0261352D01*
X0185223Y0262053D01*
X0185924Y0262053D01*
X0186624Y0261352D01*
X0186624Y0259251D01*
X0186624Y0261352D02*
X0187325Y0262053D01*
X0188025Y0262053D01*
X0188726Y0261352D01*
X0188726Y0259251D01*
X0188726Y0263854D02*
X0188726Y0265256D01*
X0188726Y0264555D02*
X0185924Y0264555D01*
X0185924Y0263854D01*
X0184522Y0264555D02*
X0183822Y0264555D01*
X0185924Y0266924D02*
X0185924Y0268325D01*
X0185223Y0267624D02*
X0188025Y0267624D01*
X0188726Y0268325D01*
X0185924Y0246706D02*
X0185924Y0244605D01*
X0186624Y0243904D01*
X0188025Y0243904D01*
X0185924Y0241535D02*
X0185924Y0240835D01*
X0184522Y0239033D02*
X0188726Y0239033D01*
X0188726Y0236231D02*
X0184522Y0236231D01*
X0185924Y0237632D01*
X0184522Y0239033D01*
X0185223Y0229825D02*
X0184522Y0229125D01*
X0184522Y0227724D01*
X0185223Y0227023D01*
X0188025Y0227023D01*
X0188726Y0227724D01*
X0188726Y0229125D01*
X0188025Y0229825D01*
X0188025Y0225222D02*
X0188726Y0224521D01*
X0188726Y0222419D01*
X0184522Y0222419D01*
X0184522Y0224521D01*
X0185223Y0225222D01*
X0185924Y0225222D01*
X0186624Y0224521D01*
X0186624Y0222419D01*
X0185924Y0220618D02*
X0186624Y0219917D01*
X0186624Y0217815D01*
X0184522Y0217815D02*
X0184522Y0219917D01*
X0185223Y0220618D01*
X0185924Y0220618D01*
X0186624Y0219917D02*
X0187325Y0220618D01*
X0188025Y0220618D01*
X0188726Y0219917D01*
X0188726Y0217815D01*
X0184522Y0217815D01*
X0185924Y0211476D02*
X0185924Y0210776D01*
X0187325Y0209375D01*
X0188726Y0209375D02*
X0185924Y0209375D01*
X0186624Y0207573D02*
X0185924Y0206873D01*
X0185924Y0205471D01*
X0186624Y0204771D01*
X0188025Y0204771D01*
X0188726Y0205471D01*
X0188726Y0206873D01*
X0188025Y0207573D01*
X0186624Y0207573D01*
X0186624Y0203103D02*
X0186624Y0201701D01*
X0185223Y0202402D02*
X0184522Y0203103D01*
X0185223Y0202402D02*
X0188726Y0202402D01*
X0178316Y0221083D02*
X0175113Y0221083D01*
X0186624Y0224521D02*
X0187325Y0225222D01*
X0188025Y0225222D01*
X0084010Y0269570D02*
X0081208Y0269570D01*
X0082609Y0269570D02*
X0082609Y0273774D01*
X0081208Y0272372D01*
X0079406Y0273073D02*
X0078706Y0273774D01*
X0077305Y0273774D01*
X0076604Y0273073D01*
X0076604Y0270271D01*
X0077305Y0269570D01*
X0078706Y0269570D01*
X0079406Y0270271D01*
X0074802Y0269570D02*
X0072000Y0269570D01*
X0072000Y0273774D01*
X0074802Y0273774D01*
X0073401Y0271672D02*
X0072000Y0271672D01*
D12*
X0091000Y0266970D02*
X0008000Y0266970D01*
X0008000Y0051970D01*
X0091000Y0051970D01*
X0091000Y0266970D01*
X0102701Y0264214D02*
X0102701Y0269726D01*
X0115299Y0269726D01*
X0115299Y0264214D01*
X0102701Y0264214D01*
X0106547Y0256801D02*
X0106547Y0248139D01*
X0112453Y0248139D02*
X0112453Y0256801D01*
X0114799Y0239726D02*
X0102201Y0239726D01*
X0102201Y0234214D01*
X0114799Y0234214D01*
X0114799Y0239726D01*
X0114799Y0222726D02*
X0102201Y0222726D01*
X0102201Y0217214D01*
X0114799Y0217214D01*
X0114799Y0222726D01*
X0094339Y0207324D02*
X0164417Y0207324D01*
X0186150Y0154490D02*
X0191661Y0154490D01*
X0191661Y0141891D01*
X0186150Y0141891D01*
X0186150Y0154490D01*
X0180756Y0143269D02*
X0175244Y0143269D01*
X0175244Y0130671D01*
X0180756Y0130671D01*
X0180756Y0143269D01*
X0180756Y0111261D02*
X0175244Y0111261D01*
X0175244Y0098663D01*
X0180756Y0098663D01*
X0180756Y0111261D01*
X0164417Y0102324D02*
X0094339Y0102324D01*
X0130244Y0091399D02*
X0130244Y0078801D01*
X0135756Y0078801D01*
X0135756Y0091399D01*
X0130244Y0091399D01*
X0140244Y0091399D02*
X0140244Y0078801D01*
X0145756Y0078801D01*
X0145756Y0091399D01*
X0140244Y0091399D01*
X0150244Y0091399D02*
X0150244Y0078801D01*
X0155756Y0078801D01*
X0155756Y0091399D01*
X0150244Y0091399D01*
X0165244Y0091399D02*
X0165244Y0078801D01*
X0170756Y0078801D01*
X0170756Y0091399D01*
X0165244Y0091399D01*
X0175244Y0091399D02*
X0175244Y0078801D01*
X0180756Y0078801D01*
X0180756Y0091399D01*
X0175244Y0091399D01*
X0185244Y0091399D02*
X0185244Y0078801D01*
X0190756Y0078801D01*
X0190756Y0091399D01*
X0185244Y0091399D01*
X0075835Y0040986D02*
X0075835Y0004569D01*
X0064024Y0004569D01*
X0064024Y0040986D01*
X0075835Y0040986D01*
X0129701Y0264214D02*
X0129701Y0269726D01*
X0142299Y0269726D01*
X0142299Y0264214D01*
X0129701Y0264214D01*
D13*
X0129834Y0271570D02*
X0130501Y0271570D01*
X0130834Y0271904D01*
X0131710Y0271904D02*
X0132043Y0271570D01*
X0132711Y0271570D01*
X0133044Y0271904D01*
X0133044Y0272237D01*
X0132711Y0272571D01*
X0132377Y0272571D01*
X0132711Y0272571D02*
X0133044Y0272905D01*
X0133044Y0273238D01*
X0132711Y0273572D01*
X0132043Y0273572D01*
X0131710Y0273238D01*
X0130834Y0273238D02*
X0130501Y0273572D01*
X0129834Y0273572D01*
X0129500Y0273238D01*
X0129500Y0271904D01*
X0129834Y0271570D01*
X0138000Y0271770D02*
X0139334Y0271770D01*
X0138667Y0271770D02*
X0138667Y0273772D01*
X0138000Y0273105D01*
X0140210Y0273438D02*
X0140543Y0273772D01*
X0141211Y0273772D01*
X0141544Y0273438D01*
X0140210Y0272104D01*
X0140543Y0271770D01*
X0141211Y0271770D01*
X0141544Y0272104D01*
X0141544Y0273438D01*
X0142420Y0273438D02*
X0142753Y0273772D01*
X0143421Y0273772D01*
X0143754Y0273438D01*
X0142420Y0272104D01*
X0142753Y0271770D01*
X0143421Y0271770D01*
X0143754Y0272104D01*
X0143754Y0273438D01*
X0144630Y0273105D02*
X0145630Y0273105D01*
X0145964Y0272771D01*
X0145964Y0271770D01*
X0146840Y0271770D02*
X0146840Y0273772D01*
X0148174Y0273772D01*
X0147507Y0272771D02*
X0146840Y0272771D01*
X0144630Y0273105D02*
X0144630Y0271770D01*
X0142420Y0272104D02*
X0142420Y0273438D01*
X0140210Y0273438D02*
X0140210Y0272104D01*
X0151989Y0262754D02*
X0151989Y0261086D01*
X0152323Y0260753D01*
X0152990Y0260753D01*
X0153323Y0261086D01*
X0153323Y0262754D01*
X0154199Y0262421D02*
X0154532Y0262754D01*
X0155200Y0262754D01*
X0155533Y0262421D01*
X0155533Y0262087D01*
X0154199Y0260753D01*
X0155533Y0260753D01*
X0147893Y0238154D02*
X0147893Y0236153D01*
X0146558Y0238154D01*
X0146558Y0236153D01*
X0145683Y0236486D02*
X0145349Y0236153D01*
X0144682Y0236153D01*
X0144348Y0236486D01*
X0145683Y0237821D01*
X0145683Y0236486D01*
X0144348Y0236486D02*
X0144348Y0237821D01*
X0144682Y0238154D01*
X0145349Y0238154D01*
X0145683Y0237821D01*
X0143473Y0237154D02*
X0142138Y0237154D01*
X0143139Y0238154D01*
X0143139Y0236153D01*
X0141263Y0236486D02*
X0141263Y0237821D01*
X0140929Y0238154D01*
X0140262Y0238154D01*
X0139928Y0237821D01*
X0139928Y0237487D01*
X0140262Y0237154D01*
X0141263Y0237154D01*
X0141263Y0236486D02*
X0140929Y0236153D01*
X0140262Y0236153D01*
X0139928Y0236486D01*
X0139053Y0237821D02*
X0137719Y0236486D01*
X0137719Y0236153D01*
X0136843Y0237154D02*
X0136510Y0236820D01*
X0135509Y0236820D01*
X0135509Y0236153D02*
X0135509Y0238154D01*
X0136510Y0238154D01*
X0136843Y0237821D01*
X0136843Y0237154D01*
X0137719Y0238154D02*
X0139053Y0238154D01*
X0139053Y0237821D01*
X0134633Y0237821D02*
X0134300Y0238154D01*
X0133632Y0238154D01*
X0133299Y0237821D01*
X0133299Y0236486D01*
X0133632Y0236153D01*
X0134300Y0236153D01*
X0134633Y0236486D01*
X0132423Y0236153D02*
X0132423Y0238154D01*
X0131756Y0237487D01*
X0131089Y0238154D01*
X0131089Y0236153D01*
X0121088Y0227054D02*
X0119754Y0227054D01*
X0119754Y0225053D01*
X0118878Y0225053D02*
X0118878Y0226387D01*
X0119754Y0226054D02*
X0120421Y0226054D01*
X0118878Y0225053D02*
X0117877Y0225053D01*
X0117544Y0225386D01*
X0117544Y0226387D01*
X0116668Y0225053D02*
X0115334Y0225053D01*
X0116001Y0225053D02*
X0116001Y0227054D01*
X0115334Y0226387D01*
X0114480Y0229603D02*
X0114480Y0231605D01*
X0115481Y0231605D01*
X0115815Y0231271D01*
X0115815Y0230604D01*
X0115481Y0230270D01*
X0114480Y0230270D01*
X0113605Y0230270D02*
X0112270Y0230270D01*
X0113605Y0231605D01*
X0113605Y0231938D01*
X0113271Y0232272D01*
X0112604Y0232272D01*
X0112270Y0231938D01*
X0110728Y0232272D02*
X0110728Y0230270D01*
X0111395Y0230270D02*
X0110060Y0230270D01*
X0110060Y0231605D02*
X0110728Y0232272D01*
X0104936Y0230116D02*
X0103602Y0230116D01*
X0104269Y0230116D02*
X0104269Y0232117D01*
X0103602Y0231450D01*
X0102727Y0231784D02*
X0102393Y0232117D01*
X0101726Y0232117D01*
X0101392Y0231784D01*
X0101392Y0230449D01*
X0101726Y0230116D01*
X0102393Y0230116D01*
X0102727Y0230449D01*
X0102525Y0227000D02*
X0101858Y0227000D01*
X0101524Y0226667D01*
X0101524Y0225332D01*
X0101858Y0224998D01*
X0102525Y0224998D01*
X0102859Y0225332D01*
X0103734Y0225332D02*
X0104068Y0224998D01*
X0104735Y0224998D01*
X0105069Y0225332D01*
X0105069Y0225999D01*
X0104735Y0226333D01*
X0104402Y0226333D01*
X0103734Y0225999D01*
X0103734Y0227000D01*
X0105069Y0227000D01*
X0102859Y0226667D02*
X0102525Y0227000D01*
X0116690Y0230270D02*
X0116690Y0232272D01*
X0118025Y0232272D01*
X0117357Y0231271D02*
X0116690Y0231271D01*
X0104200Y0243720D02*
X0104200Y0244387D01*
X0103866Y0244721D01*
X0103533Y0244721D01*
X0103199Y0244387D01*
X0103199Y0244053D01*
X0103199Y0244387D02*
X0102866Y0244721D01*
X0102532Y0244721D01*
X0102198Y0244387D01*
X0102198Y0243720D01*
X0102532Y0243386D01*
X0103866Y0243386D02*
X0104200Y0243720D01*
X0104200Y0245596D02*
X0102866Y0246930D01*
X0102532Y0246930D01*
X0102198Y0246597D01*
X0102198Y0245930D01*
X0102532Y0245596D01*
X0104200Y0245596D02*
X0104200Y0246930D01*
X0104200Y0247806D02*
X0103866Y0247806D01*
X0103866Y0248139D01*
X0104200Y0248139D01*
X0104200Y0247806D01*
X0104200Y0248911D02*
X0103866Y0248911D01*
X0102532Y0250245D01*
X0102198Y0250245D01*
X0102198Y0248911D01*
X0103199Y0251121D02*
X0103199Y0252121D01*
X0103533Y0252455D01*
X0103866Y0252455D01*
X0104200Y0252121D01*
X0104200Y0251454D01*
X0103866Y0251121D01*
X0103199Y0251121D01*
X0102532Y0251788D01*
X0102198Y0252455D01*
X0102532Y0253330D02*
X0102866Y0253330D01*
X0103199Y0253664D01*
X0103199Y0254331D01*
X0103533Y0254665D01*
X0103866Y0254665D01*
X0104200Y0254331D01*
X0104200Y0253664D01*
X0103866Y0253330D01*
X0103533Y0253330D01*
X0103199Y0253664D01*
X0103199Y0254331D02*
X0102866Y0254665D01*
X0102532Y0254665D01*
X0102198Y0254331D01*
X0102198Y0253664D01*
X0102532Y0253330D01*
X0102198Y0255540D02*
X0104200Y0255540D01*
X0103533Y0255540D02*
X0102198Y0256875D01*
X0102198Y0257750D02*
X0104200Y0257750D01*
X0104200Y0256875D02*
X0103199Y0255874D01*
X0103199Y0257750D02*
X0103199Y0259085D01*
X0102198Y0259085D02*
X0104200Y0259085D01*
X0104200Y0259960D02*
X0104200Y0261295D01*
X0104200Y0259960D02*
X0103866Y0259960D01*
X0102532Y0261295D01*
X0102198Y0261295D01*
X0102198Y0259960D01*
X0103434Y0271570D02*
X0104101Y0271570D01*
X0104434Y0271904D01*
X0105310Y0271570D02*
X0106644Y0272905D01*
X0106644Y0273238D01*
X0106311Y0273572D01*
X0105643Y0273572D01*
X0105310Y0273238D01*
X0104434Y0273238D02*
X0104101Y0273572D01*
X0103434Y0273572D01*
X0103100Y0273238D01*
X0103100Y0271904D01*
X0103434Y0271570D01*
X0105310Y0271570D02*
X0106644Y0271570D01*
X0112100Y0271870D02*
X0113434Y0271870D01*
X0112767Y0271870D02*
X0112767Y0273872D01*
X0112100Y0273205D01*
X0114310Y0273538D02*
X0114310Y0272204D01*
X0115644Y0273538D01*
X0115644Y0272204D01*
X0115311Y0271870D01*
X0114643Y0271870D01*
X0114310Y0272204D01*
X0114310Y0273538D02*
X0114643Y0273872D01*
X0115311Y0273872D01*
X0115644Y0273538D01*
X0116520Y0273205D02*
X0116520Y0271203D01*
X0116520Y0271870D02*
X0117521Y0271870D01*
X0117854Y0272204D01*
X0117854Y0272871D01*
X0117521Y0273205D01*
X0116520Y0273205D01*
X0118730Y0272871D02*
X0119397Y0272871D01*
X0118730Y0273872D02*
X0120064Y0273872D01*
X0118730Y0273872D02*
X0118730Y0271870D01*
X0115700Y0254295D02*
X0115700Y0252960D01*
X0115700Y0253627D02*
X0113698Y0253627D01*
X0114366Y0252960D01*
X0114032Y0252085D02*
X0113698Y0252085D01*
X0114032Y0252085D02*
X0114699Y0251418D01*
X0115700Y0251418D01*
X0114699Y0251418D02*
X0114032Y0250750D01*
X0113698Y0250750D01*
X0187523Y0157807D02*
X0187190Y0157474D01*
X0187190Y0156139D01*
X0187523Y0155806D01*
X0188191Y0155806D01*
X0188524Y0156139D01*
X0189400Y0156139D02*
X0190734Y0157474D01*
X0190734Y0157807D01*
X0189400Y0157807D01*
X0188524Y0157474D02*
X0188191Y0157807D01*
X0187523Y0157807D01*
X0189400Y0156139D02*
X0189400Y0155806D01*
X0179130Y0147233D02*
X0179130Y0145231D01*
X0179464Y0146232D02*
X0178130Y0146232D01*
X0179130Y0147233D01*
X0177254Y0146900D02*
X0176921Y0147233D01*
X0176253Y0147233D01*
X0175920Y0146900D01*
X0175920Y0145565D01*
X0176253Y0145231D01*
X0176921Y0145231D01*
X0177254Y0145565D01*
X0185980Y0139440D02*
X0186647Y0140107D01*
X0186647Y0138106D01*
X0185980Y0138106D02*
X0187314Y0138106D01*
X0188190Y0138439D02*
X0188523Y0138106D01*
X0189524Y0138106D01*
X0189524Y0139440D01*
X0190400Y0139106D02*
X0191067Y0139106D01*
X0190400Y0138106D02*
X0190400Y0140107D01*
X0191734Y0140107D01*
X0190429Y0134945D02*
X0189094Y0134945D01*
X0189094Y0132943D01*
X0188219Y0132943D02*
X0188219Y0134278D01*
X0189094Y0133944D02*
X0189761Y0133944D01*
X0188219Y0132943D02*
X0187218Y0132943D01*
X0186884Y0133277D01*
X0186884Y0134278D01*
X0186009Y0134611D02*
X0185675Y0134945D01*
X0185008Y0134945D01*
X0184674Y0134611D01*
X0184674Y0133277D01*
X0186009Y0134611D01*
X0186009Y0133277D01*
X0185675Y0132943D01*
X0185008Y0132943D01*
X0184674Y0133277D01*
X0183799Y0132943D02*
X0182465Y0132943D01*
X0183132Y0132943D02*
X0183132Y0134945D01*
X0182465Y0134278D01*
X0188190Y0138439D02*
X0188190Y0139440D01*
X0179592Y0114463D02*
X0178925Y0114463D01*
X0178591Y0114130D01*
X0177716Y0114130D02*
X0177716Y0113462D01*
X0177382Y0113129D01*
X0176381Y0113129D01*
X0177048Y0113129D02*
X0177716Y0112461D01*
X0178591Y0112461D02*
X0179925Y0113796D01*
X0179925Y0114130D01*
X0179592Y0114463D01*
X0177716Y0114130D02*
X0177382Y0114463D01*
X0176381Y0114463D01*
X0176381Y0112461D01*
X0178591Y0112461D02*
X0179925Y0112461D01*
X0183584Y0101239D02*
X0183584Y0099237D01*
X0182917Y0099237D02*
X0184251Y0099237D01*
X0185126Y0099571D02*
X0186461Y0100905D01*
X0186461Y0099571D01*
X0186127Y0099237D01*
X0185460Y0099237D01*
X0185126Y0099571D01*
X0185126Y0100905D01*
X0185460Y0101239D01*
X0186127Y0101239D01*
X0186461Y0100905D01*
X0187336Y0100905D02*
X0187670Y0101239D01*
X0188337Y0101239D01*
X0188671Y0100905D01*
X0187336Y0099571D01*
X0187670Y0099237D01*
X0188337Y0099237D01*
X0188671Y0099571D01*
X0188671Y0100905D01*
X0189546Y0101239D02*
X0189546Y0099237D01*
X0189546Y0099904D02*
X0190881Y0101239D01*
X0189880Y0100238D02*
X0190881Y0099237D01*
X0187336Y0099571D02*
X0187336Y0100905D01*
X0183584Y0101239D02*
X0182917Y0100571D01*
X0180211Y0094751D02*
X0179210Y0093750D01*
X0180544Y0093750D01*
X0180211Y0092750D02*
X0180211Y0094751D01*
X0178334Y0094418D02*
X0178334Y0093750D01*
X0178001Y0093417D01*
X0177000Y0093417D01*
X0177667Y0093417D02*
X0178334Y0092750D01*
X0177000Y0092750D02*
X0177000Y0094751D01*
X0178001Y0094751D01*
X0178334Y0094418D01*
X0186200Y0094468D02*
X0186200Y0093134D01*
X0186534Y0092800D01*
X0187201Y0092800D01*
X0187534Y0093134D01*
X0188410Y0093134D02*
X0188743Y0092800D01*
X0189411Y0092800D01*
X0189744Y0093134D01*
X0189744Y0094468D01*
X0189411Y0094802D01*
X0188743Y0094802D01*
X0188410Y0094468D01*
X0188410Y0094134D01*
X0188743Y0093801D01*
X0189744Y0093801D01*
X0187534Y0094468D02*
X0187201Y0094802D01*
X0186534Y0094802D01*
X0186200Y0094468D01*
X0169844Y0092900D02*
X0168510Y0092900D01*
X0169177Y0092900D02*
X0169177Y0094902D01*
X0168510Y0094234D01*
X0167634Y0093901D02*
X0167301Y0093567D01*
X0166300Y0093567D01*
X0166300Y0092900D02*
X0166300Y0094902D01*
X0167301Y0094902D01*
X0167634Y0094568D01*
X0167634Y0093901D01*
X0166967Y0093567D02*
X0167634Y0092900D01*
X0162689Y0098106D02*
X0163022Y0098440D01*
X0163022Y0098774D01*
X0162689Y0099107D01*
X0162355Y0099107D01*
X0162689Y0099107D02*
X0163022Y0099441D01*
X0163022Y0099774D01*
X0162689Y0100108D01*
X0162021Y0100108D01*
X0161688Y0099774D01*
X0160812Y0099774D02*
X0160812Y0099441D01*
X0160479Y0099107D01*
X0159811Y0099107D01*
X0159478Y0099441D01*
X0159478Y0099774D01*
X0159811Y0100108D01*
X0160479Y0100108D01*
X0160812Y0099774D01*
X0160479Y0099107D02*
X0160812Y0098774D01*
X0160812Y0098440D01*
X0160479Y0098106D01*
X0159811Y0098106D01*
X0159478Y0098440D01*
X0159478Y0098774D01*
X0159811Y0099107D01*
X0158602Y0099107D02*
X0157268Y0099107D01*
X0158269Y0100108D01*
X0158269Y0098106D01*
X0156393Y0098106D02*
X0155058Y0098106D01*
X0156393Y0099441D01*
X0156393Y0099774D01*
X0156059Y0100108D01*
X0155392Y0100108D01*
X0155058Y0099774D01*
X0154183Y0100108D02*
X0154183Y0098106D01*
X0152848Y0100108D01*
X0152848Y0098106D01*
X0151973Y0098106D02*
X0151306Y0098774D01*
X0151639Y0098774D02*
X0150638Y0098774D01*
X0150638Y0098106D02*
X0150638Y0100108D01*
X0151639Y0100108D01*
X0151973Y0099774D01*
X0151973Y0099107D01*
X0151639Y0098774D01*
X0151764Y0094585D02*
X0151097Y0094585D01*
X0150763Y0094252D01*
X0150763Y0092917D01*
X0151097Y0092583D01*
X0151764Y0092583D01*
X0152097Y0092917D01*
X0152973Y0092917D02*
X0153306Y0092583D01*
X0153974Y0092583D01*
X0154307Y0092917D01*
X0154307Y0093251D01*
X0153974Y0093584D01*
X0152973Y0093584D01*
X0152973Y0092917D01*
X0152973Y0093584D02*
X0153640Y0094252D01*
X0154307Y0094585D01*
X0152097Y0094252D02*
X0151764Y0094585D01*
X0145244Y0094468D02*
X0145244Y0094134D01*
X0144911Y0093801D01*
X0144243Y0093801D01*
X0143910Y0094134D01*
X0143910Y0094468D01*
X0144243Y0094802D01*
X0144911Y0094802D01*
X0145244Y0094468D01*
X0144911Y0093801D02*
X0145244Y0093467D01*
X0145244Y0093134D01*
X0144911Y0092800D01*
X0144243Y0092800D01*
X0143910Y0093134D01*
X0143910Y0093467D01*
X0144243Y0093801D01*
X0143034Y0094468D02*
X0142701Y0094802D01*
X0142034Y0094802D01*
X0141700Y0094468D01*
X0141700Y0093134D01*
X0142034Y0092800D01*
X0142701Y0092800D01*
X0143034Y0093134D01*
X0131969Y0093067D02*
X0131635Y0092733D01*
X0130968Y0092733D01*
X0130634Y0093067D01*
X0129759Y0092733D02*
X0129092Y0093400D01*
X0129425Y0093400D02*
X0128424Y0093400D01*
X0128424Y0092733D02*
X0128424Y0094735D01*
X0129425Y0094735D01*
X0129759Y0094401D01*
X0129759Y0093734D01*
X0129425Y0093400D01*
X0130634Y0094401D02*
X0130968Y0094735D01*
X0131635Y0094735D01*
X0131969Y0094401D01*
X0131969Y0094068D01*
X0131635Y0093734D01*
X0131969Y0093400D01*
X0131969Y0093067D01*
X0131635Y0093734D02*
X0131302Y0093734D01*
X0132664Y0077686D02*
X0133331Y0077686D01*
X0133664Y0077352D01*
X0132330Y0076018D01*
X0132664Y0075684D01*
X0133331Y0075684D01*
X0133664Y0076018D01*
X0133664Y0077352D01*
X0134540Y0077686D02*
X0135541Y0077686D01*
X0135874Y0077352D01*
X0135874Y0076685D01*
X0135541Y0076351D01*
X0134540Y0076351D01*
X0134540Y0075684D02*
X0134540Y0077686D01*
X0135207Y0076351D02*
X0135874Y0075684D01*
X0135869Y0074739D02*
X0136870Y0074739D01*
X0137204Y0074405D01*
X0137204Y0073071D01*
X0136870Y0072737D01*
X0135869Y0072737D01*
X0135869Y0074739D01*
X0138079Y0074071D02*
X0138746Y0074739D01*
X0138746Y0072737D01*
X0138079Y0072737D02*
X0139414Y0072737D01*
X0140700Y0075800D02*
X0142034Y0075800D01*
X0141367Y0075800D02*
X0141367Y0077802D01*
X0140700Y0077134D01*
X0142910Y0077468D02*
X0143243Y0077802D01*
X0143911Y0077802D01*
X0144244Y0077468D01*
X0142910Y0076134D01*
X0143243Y0075800D01*
X0143911Y0075800D01*
X0144244Y0076134D01*
X0144244Y0077468D01*
X0145120Y0077468D02*
X0145453Y0077802D01*
X0146121Y0077802D01*
X0146454Y0077468D01*
X0145120Y0076134D01*
X0145453Y0075800D01*
X0146121Y0075800D01*
X0146454Y0076134D01*
X0146454Y0077468D01*
X0147330Y0077134D02*
X0148330Y0077134D01*
X0148664Y0076801D01*
X0148664Y0075800D01*
X0149540Y0075800D02*
X0149540Y0077802D01*
X0150874Y0077802D01*
X0150207Y0076801D02*
X0149540Y0076801D01*
X0147330Y0077134D02*
X0147330Y0075800D01*
X0145120Y0076134D02*
X0145120Y0077468D01*
X0142910Y0077468D02*
X0142910Y0076134D01*
X0153223Y0075892D02*
X0154557Y0075892D01*
X0153890Y0075892D02*
X0153890Y0077894D01*
X0153223Y0077227D01*
X0155433Y0077560D02*
X0155766Y0077894D01*
X0156433Y0077894D01*
X0156767Y0077560D01*
X0155433Y0076226D01*
X0155766Y0075892D01*
X0156433Y0075892D01*
X0156767Y0076226D01*
X0156767Y0077560D01*
X0157642Y0077227D02*
X0157642Y0076226D01*
X0157976Y0075892D01*
X0158977Y0075892D01*
X0158977Y0077227D01*
X0159852Y0076893D02*
X0160520Y0076893D01*
X0161187Y0077894D02*
X0159852Y0077894D01*
X0159852Y0075892D01*
X0159577Y0074802D02*
X0159577Y0072800D01*
X0158910Y0072800D02*
X0160244Y0072800D01*
X0158910Y0074134D02*
X0159577Y0074802D01*
X0158034Y0074468D02*
X0158034Y0073134D01*
X0157701Y0072800D01*
X0157034Y0072800D01*
X0156700Y0073134D01*
X0156700Y0074468D01*
X0157034Y0074802D01*
X0157701Y0074802D01*
X0158034Y0074468D01*
X0157367Y0073467D02*
X0158034Y0072800D01*
X0155433Y0076226D02*
X0155433Y0077560D01*
X0162200Y0077334D02*
X0162867Y0078002D01*
X0162867Y0076000D01*
X0162200Y0076000D02*
X0163534Y0076000D01*
X0164410Y0076334D02*
X0165744Y0077668D01*
X0165744Y0076334D01*
X0165411Y0076000D01*
X0164743Y0076000D01*
X0164410Y0076334D01*
X0164410Y0077668D01*
X0164743Y0078002D01*
X0165411Y0078002D01*
X0165744Y0077668D01*
X0166620Y0077668D02*
X0166953Y0078002D01*
X0167621Y0078002D01*
X0167954Y0077668D01*
X0166620Y0076334D01*
X0166953Y0076000D01*
X0167621Y0076000D01*
X0167954Y0076334D01*
X0167954Y0077668D01*
X0168830Y0078002D02*
X0168830Y0076000D01*
X0168830Y0076667D02*
X0170164Y0078002D01*
X0169163Y0077001D02*
X0170164Y0076000D01*
X0172854Y0075713D02*
X0174188Y0075713D01*
X0173521Y0075713D02*
X0173521Y0077715D01*
X0172854Y0077048D01*
X0175063Y0077381D02*
X0175397Y0077715D01*
X0176064Y0077715D01*
X0176398Y0077381D01*
X0175063Y0076047D01*
X0175397Y0075713D01*
X0176064Y0075713D01*
X0176398Y0076047D01*
X0176398Y0077381D01*
X0177273Y0077381D02*
X0177607Y0077715D01*
X0178274Y0077715D01*
X0178608Y0077381D01*
X0177273Y0076047D01*
X0177607Y0075713D01*
X0178274Y0075713D01*
X0178608Y0076047D01*
X0178608Y0077381D01*
X0179483Y0077715D02*
X0179483Y0075713D01*
X0179483Y0076381D02*
X0180818Y0077715D01*
X0179817Y0076714D02*
X0180818Y0075713D01*
X0177273Y0076047D02*
X0177273Y0077381D01*
X0175063Y0077381D02*
X0175063Y0076047D01*
X0166620Y0076334D02*
X0166620Y0077668D01*
X0167060Y0060902D02*
X0166059Y0060902D01*
X0166059Y0058900D01*
X0166059Y0059567D02*
X0167060Y0059567D01*
X0167394Y0059901D01*
X0167394Y0060568D01*
X0167060Y0060902D01*
X0165184Y0060568D02*
X0163849Y0059234D01*
X0164183Y0058900D01*
X0164850Y0058900D01*
X0165184Y0059234D01*
X0165184Y0060568D01*
X0164850Y0060902D01*
X0164183Y0060902D01*
X0163849Y0060568D01*
X0163849Y0059234D01*
X0162974Y0059901D02*
X0161640Y0059901D01*
X0162640Y0060902D01*
X0162640Y0058900D01*
X0160764Y0059234D02*
X0160430Y0058900D01*
X0159763Y0058900D01*
X0159430Y0059234D01*
X0158554Y0058900D02*
X0158554Y0060902D01*
X0159430Y0060568D02*
X0159763Y0060902D01*
X0160430Y0060902D01*
X0160764Y0060568D01*
X0160764Y0060234D01*
X0160430Y0059901D01*
X0160764Y0059567D01*
X0160764Y0059234D01*
X0160430Y0059901D02*
X0160097Y0059901D01*
X0158554Y0058900D02*
X0157220Y0060902D01*
X0157220Y0058900D01*
X0156344Y0059234D02*
X0156344Y0060568D01*
X0156011Y0060902D01*
X0155010Y0060902D01*
X0155010Y0058900D01*
X0156011Y0058900D01*
X0156344Y0059234D01*
X0154134Y0060902D02*
X0152800Y0060902D01*
X0152800Y0058900D01*
X0152800Y0059901D02*
X0153467Y0059901D01*
X0146883Y0061247D02*
X0145548Y0061247D01*
X0146216Y0061247D02*
X0146216Y0059245D01*
X0144673Y0059245D02*
X0143338Y0059245D01*
X0143338Y0061247D01*
X0142463Y0060913D02*
X0141129Y0059578D01*
X0141462Y0059245D01*
X0142129Y0059245D01*
X0142463Y0059578D01*
X0142463Y0060913D01*
X0142129Y0061247D01*
X0141462Y0061247D01*
X0141129Y0060913D01*
X0141129Y0059578D01*
X0140253Y0059245D02*
X0138919Y0059245D01*
X0140253Y0060579D01*
X0140253Y0060913D01*
X0139920Y0061247D01*
X0139252Y0061247D01*
X0138919Y0060913D01*
X0138043Y0061247D02*
X0136709Y0061247D01*
X0136709Y0060246D01*
X0137376Y0060579D01*
X0137710Y0060579D01*
X0138043Y0060246D01*
X0138043Y0059578D01*
X0137710Y0059245D01*
X0137042Y0059245D01*
X0136709Y0059578D01*
X0135833Y0059578D02*
X0135500Y0059245D01*
X0134833Y0059245D01*
X0134499Y0059578D01*
X0135833Y0060913D01*
X0135833Y0059578D01*
X0134499Y0059578D02*
X0134499Y0060913D01*
X0134833Y0061247D01*
X0135500Y0061247D01*
X0135833Y0060913D01*
X0133624Y0060913D02*
X0133624Y0060246D01*
X0133290Y0059912D01*
X0132289Y0059912D01*
X0132289Y0059245D02*
X0132289Y0061247D01*
X0133290Y0061247D01*
X0133624Y0060913D01*
X0132956Y0059912D02*
X0133624Y0059245D01*
X0131414Y0059578D02*
X0131080Y0059245D01*
X0130079Y0059245D01*
X0130079Y0061247D01*
X0131080Y0061247D01*
X0131414Y0060913D01*
X0131414Y0060579D01*
X0131080Y0060246D01*
X0130079Y0060246D01*
X0131080Y0060246D02*
X0131414Y0059912D01*
X0131414Y0059578D01*
X0129204Y0059245D02*
X0129204Y0061247D01*
X0128537Y0060579D01*
X0127869Y0061247D01*
X0127869Y0059245D01*
X0132330Y0076018D02*
X0132330Y0077352D01*
X0132664Y0077686D01*
X0108017Y0097660D02*
X0106683Y0097660D01*
X0107350Y0097660D02*
X0107350Y0099662D01*
X0106683Y0098994D01*
X0105808Y0099662D02*
X0105808Y0097993D01*
X0105474Y0097660D01*
X0104807Y0097660D01*
X0104473Y0097993D01*
X0104473Y0099662D01*
X0161688Y0098440D02*
X0162021Y0098106D01*
X0162689Y0098106D01*
X0188200Y0077134D02*
X0188867Y0077802D01*
X0188867Y0075800D01*
X0188200Y0075800D02*
X0189534Y0075800D01*
X0190410Y0076134D02*
X0190743Y0075800D01*
X0191744Y0075800D01*
X0191744Y0077134D01*
X0192620Y0076801D02*
X0193287Y0076801D01*
X0192620Y0077802D02*
X0193954Y0077802D01*
X0192620Y0077802D02*
X0192620Y0075800D01*
X0191699Y0073794D02*
X0191032Y0073794D01*
X0190698Y0073460D01*
X0189823Y0073460D02*
X0189823Y0072126D01*
X0189489Y0071792D01*
X0188822Y0071792D01*
X0188488Y0072126D01*
X0188488Y0073460D01*
X0188822Y0073794D01*
X0189489Y0073794D01*
X0189823Y0073460D01*
X0189155Y0072459D02*
X0189823Y0071792D01*
X0190698Y0071792D02*
X0192033Y0073127D01*
X0192033Y0073460D01*
X0191699Y0073794D01*
X0192033Y0071792D02*
X0190698Y0071792D01*
X0190410Y0076134D02*
X0190410Y0077134D01*
X0189771Y0060373D02*
X0190104Y0060040D01*
X0190104Y0059706D01*
X0189771Y0059373D01*
X0189103Y0059373D01*
X0188770Y0059706D01*
X0188770Y0060040D01*
X0189103Y0060373D01*
X0189771Y0060373D01*
X0189771Y0059373D02*
X0190104Y0059039D01*
X0190104Y0058705D01*
X0189771Y0058372D01*
X0189103Y0058372D01*
X0188770Y0058705D01*
X0188770Y0059039D01*
X0189103Y0059373D01*
X0187894Y0059706D02*
X0187561Y0059373D01*
X0187894Y0059039D01*
X0187894Y0058705D01*
X0187561Y0058372D01*
X0186894Y0058372D01*
X0186560Y0058705D01*
X0185685Y0058372D02*
X0184350Y0058372D01*
X0185017Y0058372D02*
X0185017Y0060373D01*
X0184350Y0059706D01*
X0183475Y0060040D02*
X0183141Y0060373D01*
X0182474Y0060373D01*
X0182140Y0060040D01*
X0182140Y0059706D01*
X0182474Y0059373D01*
X0183141Y0059373D01*
X0183475Y0059039D01*
X0183475Y0058705D01*
X0183141Y0058372D01*
X0182474Y0058372D01*
X0182140Y0058705D01*
X0181265Y0058705D02*
X0181265Y0059039D01*
X0180931Y0059373D01*
X0180264Y0059373D01*
X0179930Y0059706D01*
X0179930Y0060040D01*
X0180264Y0060373D01*
X0180931Y0060373D01*
X0181265Y0060040D01*
X0181265Y0058705D02*
X0180931Y0058372D01*
X0180264Y0058372D01*
X0179930Y0058705D01*
X0179055Y0058705D02*
X0178721Y0058372D01*
X0177720Y0058372D01*
X0177720Y0060373D01*
X0178721Y0060373D01*
X0179055Y0060040D01*
X0179055Y0059706D01*
X0178721Y0059373D01*
X0177720Y0059373D01*
X0178721Y0059373D02*
X0179055Y0059039D01*
X0179055Y0058705D01*
X0186560Y0060040D02*
X0186894Y0060373D01*
X0187561Y0060373D01*
X0187894Y0060040D01*
X0187894Y0059706D01*
X0187561Y0059373D02*
X0187227Y0059373D01*
X0006269Y0257170D02*
X0003200Y0257170D01*
X0004735Y0257170D02*
X0004735Y0261774D01*
X0003200Y0260239D01*
D14*
X0134989Y0260153D02*
X0134991Y0260084D01*
X0134997Y0260016D01*
X0135007Y0259948D01*
X0135020Y0259881D01*
X0135038Y0259815D01*
X0135059Y0259750D01*
X0135084Y0259686D01*
X0135112Y0259624D01*
X0135144Y0259563D01*
X0135179Y0259504D01*
X0135218Y0259448D01*
X0135260Y0259393D01*
X0135305Y0259342D01*
X0135353Y0259292D01*
X0135403Y0259246D01*
X0135456Y0259203D01*
X0135512Y0259162D01*
X0135569Y0259125D01*
X0135629Y0259092D01*
X0135691Y0259061D01*
X0135754Y0259035D01*
X0135818Y0259012D01*
X0135884Y0258992D01*
X0135951Y0258977D01*
X0136018Y0258965D01*
X0136086Y0258957D01*
X0136155Y0258953D01*
X0136223Y0258953D01*
X0136292Y0258957D01*
X0136360Y0258965D01*
X0136427Y0258977D01*
X0136494Y0258992D01*
X0136560Y0259012D01*
X0136624Y0259035D01*
X0136687Y0259061D01*
X0136749Y0259092D01*
X0136809Y0259125D01*
X0136866Y0259162D01*
X0136922Y0259203D01*
X0136975Y0259246D01*
X0137025Y0259292D01*
X0137073Y0259342D01*
X0137118Y0259393D01*
X0137160Y0259448D01*
X0137199Y0259504D01*
X0137234Y0259563D01*
X0137266Y0259624D01*
X0137294Y0259686D01*
X0137319Y0259750D01*
X0137340Y0259815D01*
X0137358Y0259881D01*
X0137371Y0259948D01*
X0137381Y0260016D01*
X0137387Y0260084D01*
X0137389Y0260153D01*
D15*
X0126875Y0260687D02*
X0123739Y0263823D01*
X0125307Y0263823D02*
X0125307Y0260687D01*
X0123739Y0260687D02*
X0126875Y0263823D01*
X0126875Y0262255D02*
X0123739Y0262255D01*
D16*
X0070126Y0027009D03*
D17*
X0163000Y0247000D02*
X0161200Y0248900D01*
X0163000Y0251500D01*
X0162000Y0254000D02*
X0158800Y0254500D01*
X0158800Y0257200D01*
X0162000Y0257700D01*
X0163000Y0260200D02*
X0161200Y0262800D01*
X0163000Y0264700D01*
X0165600Y0262900D01*
X0168100Y0264000D02*
X0168700Y0267000D01*
X0171300Y0267000D01*
X0171800Y0264000D01*
X0174500Y0263000D02*
X0176900Y0264700D01*
X0178800Y0262800D01*
X0177100Y0260400D01*
X0177700Y0259400D01*
X0173200Y0257500D01*
X0174505Y0263000D02*
X0174339Y0263096D01*
X0174172Y0263189D01*
X0174002Y0263277D01*
X0173830Y0263361D01*
X0173657Y0263441D01*
X0173481Y0263517D01*
X0173304Y0263589D01*
X0173125Y0263656D01*
X0172944Y0263720D01*
X0172762Y0263779D01*
X0172579Y0263833D01*
X0172394Y0263884D01*
X0172209Y0263930D01*
X0172022Y0263971D01*
X0171834Y0264008D01*
X0168100Y0263990D02*
X0167912Y0263940D01*
X0167725Y0263885D01*
X0167539Y0263826D01*
X0167355Y0263762D01*
X0167172Y0263694D01*
X0166991Y0263621D01*
X0166812Y0263544D01*
X0166635Y0263463D01*
X0166459Y0263377D01*
X0166286Y0263288D01*
X0166115Y0263194D01*
X0165947Y0263096D01*
X0165780Y0262994D01*
X0165617Y0262889D01*
X0173100Y0257500D02*
X0173045Y0257607D01*
X0172988Y0257713D01*
X0172926Y0257816D01*
X0172862Y0257918D01*
X0172794Y0258017D01*
X0172723Y0258114D01*
X0172649Y0258209D01*
X0172572Y0258301D01*
X0172491Y0258391D01*
X0172408Y0258478D01*
X0172322Y0258562D01*
X0172234Y0258643D01*
X0172142Y0258721D01*
X0172048Y0258797D01*
X0171952Y0258869D01*
X0171854Y0258938D01*
X0171753Y0259004D01*
X0171650Y0259066D01*
X0171545Y0259125D01*
X0171439Y0259181D01*
X0171330Y0259233D01*
X0171220Y0259281D01*
X0171108Y0259326D01*
X0170995Y0259367D01*
X0170881Y0259404D01*
X0170765Y0259438D01*
X0170649Y0259467D01*
X0170531Y0259493D01*
X0170413Y0259515D01*
X0170294Y0259534D01*
X0170175Y0259548D01*
X0170055Y0259558D01*
X0169935Y0259565D01*
X0169814Y0259567D01*
X0169694Y0259565D01*
X0169574Y0259560D01*
X0169454Y0259551D01*
X0169334Y0259537D01*
X0169215Y0259520D01*
X0169097Y0259499D01*
X0168979Y0259474D01*
X0168862Y0259445D01*
X0168747Y0259412D01*
X0168632Y0259376D01*
X0168519Y0259336D01*
X0168407Y0259292D01*
X0168296Y0259244D01*
X0168187Y0259193D01*
X0168080Y0259139D01*
X0167975Y0259080D01*
X0167871Y0259019D01*
X0167770Y0258954D01*
X0167671Y0258886D01*
X0167574Y0258814D01*
X0167480Y0258740D01*
X0167388Y0258662D01*
X0167299Y0258582D01*
X0167212Y0258498D01*
X0167128Y0258412D01*
X0167047Y0258323D01*
X0166969Y0258231D01*
X0166894Y0258137D01*
X0166823Y0258041D01*
X0166754Y0257942D01*
X0166689Y0257841D01*
X0166627Y0257738D01*
X0166568Y0257633D01*
X0166513Y0257526D01*
X0166461Y0257417D01*
X0166414Y0257307D01*
X0166369Y0257195D01*
X0166329Y0257082D01*
X0166292Y0256967D01*
X0166259Y0256851D01*
X0166229Y0256735D01*
X0166204Y0256617D01*
X0166182Y0256499D01*
X0166165Y0256380D01*
X0166151Y0256260D01*
X0166141Y0256140D01*
X0166135Y0256020D01*
X0166133Y0255900D01*
X0166135Y0255780D01*
X0166141Y0255660D01*
X0166151Y0255540D01*
X0166165Y0255420D01*
X0166182Y0255301D01*
X0166204Y0255183D01*
X0166229Y0255065D01*
X0166259Y0254949D01*
X0166292Y0254833D01*
X0166329Y0254718D01*
X0166369Y0254605D01*
X0166414Y0254493D01*
X0166461Y0254383D01*
X0166513Y0254274D01*
X0166568Y0254167D01*
X0166627Y0254062D01*
X0166689Y0253959D01*
X0166754Y0253858D01*
X0166823Y0253759D01*
X0166894Y0253663D01*
X0166969Y0253569D01*
X0167047Y0253477D01*
X0167128Y0253388D01*
X0167212Y0253302D01*
X0167299Y0253218D01*
X0167388Y0253138D01*
X0167480Y0253060D01*
X0167574Y0252986D01*
X0167671Y0252914D01*
X0167770Y0252846D01*
X0167871Y0252781D01*
X0167975Y0252720D01*
X0168080Y0252661D01*
X0168187Y0252607D01*
X0168296Y0252556D01*
X0168407Y0252508D01*
X0168519Y0252464D01*
X0168632Y0252424D01*
X0168747Y0252388D01*
X0168862Y0252355D01*
X0168979Y0252326D01*
X0169097Y0252301D01*
X0169215Y0252280D01*
X0169334Y0252263D01*
X0169454Y0252249D01*
X0169574Y0252240D01*
X0169694Y0252235D01*
X0169814Y0252233D01*
X0169935Y0252235D01*
X0170055Y0252242D01*
X0170175Y0252252D01*
X0170294Y0252266D01*
X0170413Y0252285D01*
X0170531Y0252307D01*
X0170649Y0252333D01*
X0170765Y0252362D01*
X0170881Y0252396D01*
X0170995Y0252433D01*
X0171108Y0252474D01*
X0171220Y0252519D01*
X0171330Y0252567D01*
X0171439Y0252619D01*
X0171545Y0252675D01*
X0171650Y0252734D01*
X0171753Y0252796D01*
X0171854Y0252862D01*
X0171952Y0252931D01*
X0172048Y0253003D01*
X0172142Y0253079D01*
X0172234Y0253157D01*
X0172322Y0253238D01*
X0172408Y0253322D01*
X0172491Y0253409D01*
X0172572Y0253499D01*
X0172649Y0253591D01*
X0172723Y0253686D01*
X0172794Y0253783D01*
X0172862Y0253882D01*
X0172926Y0253984D01*
X0172988Y0254087D01*
X0173045Y0254193D01*
X0173100Y0254300D01*
X0173200Y0254300D02*
X0177700Y0252300D01*
X0177100Y0251300D01*
X0178800Y0248900D01*
X0176900Y0247100D01*
X0174500Y0248700D01*
X0171800Y0247700D02*
X0171300Y0244700D01*
X0168700Y0244700D01*
X0168100Y0247700D01*
X0165600Y0248800D02*
X0163000Y0247000D01*
X0162964Y0251534D02*
X0162864Y0251706D01*
X0162767Y0251881D01*
X0162675Y0252057D01*
X0162587Y0252236D01*
X0162503Y0252417D01*
X0162424Y0252600D01*
X0162349Y0252784D01*
X0162278Y0252971D01*
X0162212Y0253159D01*
X0162151Y0253348D01*
X0162094Y0253539D01*
X0162041Y0253732D01*
X0161994Y0253925D01*
X0165654Y0248808D02*
X0165816Y0248708D01*
X0165981Y0248611D01*
X0166148Y0248518D01*
X0166317Y0248430D01*
X0166487Y0248345D01*
X0166660Y0248264D01*
X0166835Y0248187D01*
X0167011Y0248114D01*
X0167189Y0248045D01*
X0167369Y0247980D01*
X0167549Y0247919D01*
X0167732Y0247863D01*
X0167915Y0247810D01*
X0168100Y0247762D01*
X0171816Y0247706D02*
X0172016Y0247749D01*
X0172214Y0247796D01*
X0172411Y0247848D01*
X0172607Y0247906D01*
X0172802Y0247967D01*
X0172995Y0248034D01*
X0173186Y0248105D01*
X0173376Y0248181D01*
X0173563Y0248262D01*
X0173749Y0248347D01*
X0173932Y0248437D01*
X0174113Y0248531D01*
X0174292Y0248630D01*
X0174468Y0248733D01*
X0161975Y0257753D02*
X0162020Y0257940D01*
X0162069Y0258126D01*
X0162123Y0258311D01*
X0162181Y0258494D01*
X0162243Y0258676D01*
X0162309Y0258857D01*
X0162379Y0259036D01*
X0162453Y0259213D01*
X0162532Y0259389D01*
X0162614Y0259562D01*
X0162701Y0259734D01*
X0162791Y0259904D01*
X0162885Y0260072D01*
X0162983Y0260237D01*
M02*
